<mxfile host="app.diagrams.net" modified="2024-06-25T04:44:13.387Z" agent="Mozilla/5.0 (Windows NT 10.0; Win64; x64) AppleWebKit/537.36 (KHTML, like Gecko) Chrome/126.0.0.0 Safari/537.36 Edg/126.0.0.0" etag="we3dXujiLq8ppqrqNP4B" version="24.6.2" type="device">
  <diagram name="Страница — 1" id="tw9W5QKRwoaeAU3xFHu2">
    <mxGraphModel dx="2465" dy="2069" grid="1" gridSize="10" guides="1" tooltips="1" connect="1" arrows="1" fold="1" page="1" pageScale="1" pageWidth="827" pageHeight="1169" math="0" shadow="0">
      <root>
        <mxCell id="0" />
        <mxCell id="1" parent="0" />
        <mxCell id="2pT8554tq2TcYR5QaNTi-1" value="начало&lt;div&gt;create&lt;/div&gt;" style="strokeWidth=2;html=1;shape=mxgraph.flowchart.terminator;whiteSpace=wrap;" parent="1" vertex="1">
          <mxGeometry x="240" y="-1080" width="154" height="50" as="geometry" />
        </mxCell>
        <mxCell id="2pT8554tq2TcYR5QaNTi-2" value="&lt;span style=&quot;font-size: 12px;&quot;&gt;ofstream fout;&lt;/span&gt;" style="rounded=1;whiteSpace=wrap;html=1;absoluteArcSize=1;arcSize=14;strokeWidth=2;" parent="1" vertex="1">
          <mxGeometry x="240" y="-1010" width="155" height="100" as="geometry" />
        </mxCell>
        <mxCell id="2pT8554tq2TcYR5QaNTi-3" value="" style="edgeStyle=orthogonalEdgeStyle;rounded=0;orthogonalLoop=1;jettySize=auto;html=1;" parent="1" edge="1">
          <mxGeometry relative="1" as="geometry">
            <mxPoint x="316.5" y="-1030" as="sourcePoint" />
            <mxPoint x="317" y="-1010" as="targetPoint" />
          </mxGeometry>
        </mxCell>
        <mxCell id="2pT8554tq2TcYR5QaNTi-4" value="" style="edgeStyle=orthogonalEdgeStyle;rounded=0;orthogonalLoop=1;jettySize=auto;html=1;" parent="1" edge="1">
          <mxGeometry relative="1" as="geometry">
            <mxPoint x="316.5" y="-910" as="sourcePoint" />
            <mxPoint x="317" y="-890" as="targetPoint" />
          </mxGeometry>
        </mxCell>
        <mxCell id="2pT8554tq2TcYR5QaNTi-5" value="&lt;span style=&quot;font-size: 12px;&quot;&gt;getline(cin, reading);&lt;/span&gt;" style="shape=process;whiteSpace=wrap;html=1;backgroundOutline=1;" parent="1" vertex="1">
          <mxGeometry x="240" y="-890" width="155" height="100" as="geometry" />
        </mxCell>
        <mxCell id="2pT8554tq2TcYR5QaNTi-6" value="" style="edgeStyle=orthogonalEdgeStyle;rounded=0;orthogonalLoop=1;jettySize=auto;html=1;" parent="1" edge="1">
          <mxGeometry relative="1" as="geometry">
            <mxPoint x="317" y="-790" as="sourcePoint" />
            <mxPoint x="317.5" y="-770" as="targetPoint" />
          </mxGeometry>
        </mxCell>
        <mxCell id="2pT8554tq2TcYR5QaNTi-7" value="&lt;span style=&quot;font-size: 12px;&quot;&gt;fout.open(&quot;Input.txt&quot;);&lt;/span&gt;" style="shape=process;whiteSpace=wrap;html=1;backgroundOutline=1;" parent="1" vertex="1">
          <mxGeometry x="240" y="-770" width="155" height="100" as="geometry" />
        </mxCell>
        <mxCell id="2pT8554tq2TcYR5QaNTi-8" value="&lt;span style=&quot;font-size: 12px;&quot;&gt;(fout.is_open())&amp;nbsp;&lt;/span&gt;" style="rhombus;whiteSpace=wrap;html=1;" parent="1" vertex="1">
          <mxGeometry x="240" y="-650" width="156" height="100" as="geometry" />
        </mxCell>
        <mxCell id="2pT8554tq2TcYR5QaNTi-9" value="" style="edgeStyle=orthogonalEdgeStyle;rounded=0;orthogonalLoop=1;jettySize=auto;html=1;" parent="1" edge="1">
          <mxGeometry relative="1" as="geometry">
            <mxPoint x="317" y="-670" as="sourcePoint" />
            <mxPoint x="317.5" y="-650" as="targetPoint" />
          </mxGeometry>
        </mxCell>
        <mxCell id="2pT8554tq2TcYR5QaNTi-10" value="" style="endArrow=none;html=1;rounded=0;" parent="1" source="2pT8554tq2TcYR5QaNTi-8" edge="1">
          <mxGeometry width="50" height="50" relative="1" as="geometry">
            <mxPoint x="396" y="-550" as="sourcePoint" />
            <mxPoint x="460" y="-600" as="targetPoint" />
          </mxGeometry>
        </mxCell>
        <mxCell id="2pT8554tq2TcYR5QaNTi-11" value="" style="endArrow=none;html=1;rounded=0;" parent="1" edge="1">
          <mxGeometry width="50" height="50" relative="1" as="geometry">
            <mxPoint x="169.29" y="-600.5" as="sourcePoint" />
            <mxPoint x="240.00067811865475" y="-600.5" as="targetPoint" />
          </mxGeometry>
        </mxCell>
        <mxCell id="2pT8554tq2TcYR5QaNTi-12" value="" style="endArrow=classic;html=1;rounded=0;" parent="1" edge="1">
          <mxGeometry width="50" height="50" relative="1" as="geometry">
            <mxPoint x="170" y="-600" as="sourcePoint" />
            <mxPoint x="170" y="-550" as="targetPoint" />
          </mxGeometry>
        </mxCell>
        <mxCell id="2pT8554tq2TcYR5QaNTi-13" value="" style="endArrow=classic;html=1;rounded=0;" parent="1" edge="1">
          <mxGeometry width="50" height="50" relative="1" as="geometry">
            <mxPoint x="460" y="-600" as="sourcePoint" />
            <mxPoint x="460" y="-550" as="targetPoint" />
          </mxGeometry>
        </mxCell>
        <mxCell id="2pT8554tq2TcYR5QaNTi-14" value="&lt;span style=&quot;font-size: 12px;&quot;&gt;fout &amp;lt;&amp;lt; fileData;&lt;/span&gt;" style="shape=parallelogram;perimeter=parallelogramPerimeter;whiteSpace=wrap;html=1;fixedSize=1;" parent="1" vertex="1">
          <mxGeometry x="90" y="-550" width="150" height="100" as="geometry" />
        </mxCell>
        <mxCell id="2pT8554tq2TcYR5QaNTi-15" value="" style="edgeStyle=orthogonalEdgeStyle;rounded=0;orthogonalLoop=1;jettySize=auto;html=1;" parent="1" edge="1">
          <mxGeometry relative="1" as="geometry">
            <mxPoint x="170" y="-450" as="sourcePoint" />
            <mxPoint x="170.5" y="-430" as="targetPoint" />
          </mxGeometry>
        </mxCell>
        <mxCell id="2pT8554tq2TcYR5QaNTi-17" value="&lt;span style=&quot;font-size: 12px;&quot;&gt;fout.close();&lt;/span&gt;" style="shape=process;whiteSpace=wrap;html=1;backgroundOutline=1;" parent="1" vertex="1">
          <mxGeometry x="87.5" y="-430" width="155" height="100" as="geometry" />
        </mxCell>
        <mxCell id="2pT8554tq2TcYR5QaNTi-18" value="&lt;span style=&quot;font-size: 12px;&quot;&gt;&quot;File not found!&quot;&lt;/span&gt;" style="shape=parallelogram;perimeter=parallelogramPerimeter;whiteSpace=wrap;html=1;fixedSize=1;" parent="1" vertex="1">
          <mxGeometry x="380" y="-550" width="150" height="100" as="geometry" />
        </mxCell>
        <mxCell id="2pT8554tq2TcYR5QaNTi-19" value="" style="endArrow=none;html=1;rounded=0;" parent="1" edge="1">
          <mxGeometry width="50" height="50" relative="1" as="geometry">
            <mxPoint x="455" y="-310" as="sourcePoint" />
            <mxPoint x="454.5" y="-450" as="targetPoint" />
          </mxGeometry>
        </mxCell>
        <mxCell id="2pT8554tq2TcYR5QaNTi-20" value="" style="endArrow=none;html=1;rounded=0;" parent="1" edge="1">
          <mxGeometry width="50" height="50" relative="1" as="geometry">
            <mxPoint x="160" y="-310" as="sourcePoint" />
            <mxPoint x="160" y="-330" as="targetPoint" />
          </mxGeometry>
        </mxCell>
        <mxCell id="2pT8554tq2TcYR5QaNTi-21" value="" style="endArrow=none;html=1;rounded=0;" parent="1" edge="1">
          <mxGeometry width="50" height="50" relative="1" as="geometry">
            <mxPoint x="160" y="-310" as="sourcePoint" />
            <mxPoint x="460" y="-310" as="targetPoint" />
          </mxGeometry>
        </mxCell>
        <mxCell id="2pT8554tq2TcYR5QaNTi-22" value="" style="edgeStyle=orthogonalEdgeStyle;rounded=0;orthogonalLoop=1;jettySize=auto;html=1;" parent="1" edge="1">
          <mxGeometry relative="1" as="geometry">
            <mxPoint x="316.5" y="-310" as="sourcePoint" />
            <mxPoint x="317" y="-290" as="targetPoint" />
          </mxGeometry>
        </mxCell>
        <mxCell id="2pT8554tq2TcYR5QaNTi-23" value="&lt;div&gt;конец&lt;/div&gt;&lt;div&gt;create&lt;/div&gt;" style="strokeWidth=2;html=1;shape=mxgraph.flowchart.terminator;whiteSpace=wrap;" parent="1" vertex="1">
          <mxGeometry x="240" y="-290" width="154" height="50" as="geometry" />
        </mxCell>
        <mxCell id="2pT8554tq2TcYR5QaNTi-24" value="начало&lt;div&gt;GetNumbersStationary&lt;/div&gt;" style="strokeWidth=2;html=1;shape=mxgraph.flowchart.terminator;whiteSpace=wrap;" parent="1" vertex="1">
          <mxGeometry x="249" y="910" width="154" height="50" as="geometry" />
        </mxCell>
        <mxCell id="2pT8554tq2TcYR5QaNTi-26" value="" style="edgeStyle=orthogonalEdgeStyle;rounded=0;orthogonalLoop=1;jettySize=auto;html=1;" parent="1" edge="1">
          <mxGeometry relative="1" as="geometry">
            <mxPoint x="325.5" y="960" as="sourcePoint" />
            <mxPoint x="326" y="980" as="targetPoint" />
          </mxGeometry>
        </mxCell>
        <mxCell id="2pT8554tq2TcYR5QaNTi-52" value="&lt;span style=&quot;font-size: 12px;&quot;&gt;pos &amp;lt;= reading.size()&lt;/span&gt;" style="rhombus;whiteSpace=wrap;html=1;" parent="1" vertex="1">
          <mxGeometry x="247.5" y="980" width="156" height="100" as="geometry" />
        </mxCell>
        <mxCell id="2pT8554tq2TcYR5QaNTi-53" value="" style="edgeStyle=orthogonalEdgeStyle;rounded=0;orthogonalLoop=1;jettySize=auto;html=1;" parent="1" edge="1">
          <mxGeometry relative="1" as="geometry">
            <mxPoint x="325" y="1080" as="sourcePoint" />
            <mxPoint x="325.5" y="1100" as="targetPoint" />
          </mxGeometry>
        </mxCell>
        <mxCell id="2pT8554tq2TcYR5QaNTi-54" value="[1]" style="rhombus;whiteSpace=wrap;html=1;" parent="1" vertex="1">
          <mxGeometry x="247.5" y="1100" width="156" height="100" as="geometry" />
        </mxCell>
        <mxCell id="2pT8554tq2TcYR5QaNTi-55" value="" style="endArrow=none;html=1;rounded=0;" parent="1" edge="1">
          <mxGeometry width="50" height="50" relative="1" as="geometry">
            <mxPoint x="400.5" y="1149.5" as="sourcePoint" />
            <mxPoint x="458.5" y="1150" as="targetPoint" />
          </mxGeometry>
        </mxCell>
        <mxCell id="2pT8554tq2TcYR5QaNTi-56" value="" style="endArrow=none;html=1;rounded=0;" parent="1" edge="1">
          <mxGeometry width="50" height="50" relative="1" as="geometry">
            <mxPoint x="179.5" y="1150" as="sourcePoint" />
            <mxPoint x="247.50067811865475" y="1149.5" as="targetPoint" />
          </mxGeometry>
        </mxCell>
        <mxCell id="2pT8554tq2TcYR5QaNTi-57" value="" style="endArrow=classic;html=1;rounded=0;" parent="1" edge="1">
          <mxGeometry width="50" height="50" relative="1" as="geometry">
            <mxPoint x="180" y="1150" as="sourcePoint" />
            <mxPoint x="180" y="1200" as="targetPoint" />
          </mxGeometry>
        </mxCell>
        <mxCell id="2pT8554tq2TcYR5QaNTi-58" value="&lt;span style=&quot;font-size: 12px;&quot;&gt;numbers += reading.substr(pos, 8) + &quot;\n&quot;&lt;/span&gt;" style="rounded=1;whiteSpace=wrap;html=1;absoluteArcSize=1;arcSize=14;strokeWidth=2;" parent="1" vertex="1">
          <mxGeometry x="110" y="1200" width="155" height="100" as="geometry" />
        </mxCell>
        <mxCell id="2pT8554tq2TcYR5QaNTi-59" value="" style="edgeStyle=orthogonalEdgeStyle;rounded=0;orthogonalLoop=1;jettySize=auto;html=1;" parent="1" edge="1">
          <mxGeometry relative="1" as="geometry">
            <mxPoint x="180" y="1300" as="sourcePoint" />
            <mxPoint x="180.5" y="1320" as="targetPoint" />
          </mxGeometry>
        </mxCell>
        <mxCell id="2pT8554tq2TcYR5QaNTi-60" value="&lt;span style=&quot;font-size: 11px;&quot;&gt;&quot;Number find from &quot; &amp;lt;&amp;lt; pos &amp;lt;&amp;lt; &quot; &quot; &amp;lt;&amp;lt; &quot;to &quot; &amp;lt;&amp;lt; pos + 8&amp;nbsp;&lt;/span&gt;" style="shape=parallelogram;perimeter=parallelogramPerimeter;whiteSpace=wrap;html=1;fixedSize=1;" parent="1" vertex="1">
          <mxGeometry x="110" y="1320" width="150" height="100" as="geometry" />
        </mxCell>
        <mxCell id="2pT8554tq2TcYR5QaNTi-61" value="&lt;span style=&quot;font-size: 12px;&quot;&gt;pos += 8;&lt;/span&gt;&lt;div&gt;&lt;span style=&quot;font-size: 12px;&quot;&gt;findNumbers = true;&lt;/span&gt;&lt;br&gt;&lt;/div&gt;" style="rounded=1;whiteSpace=wrap;html=1;absoluteArcSize=1;arcSize=14;strokeWidth=2;" parent="1" vertex="1">
          <mxGeometry x="105" y="1440" width="155" height="100" as="geometry" />
        </mxCell>
        <mxCell id="2pT8554tq2TcYR5QaNTi-62" value="" style="edgeStyle=orthogonalEdgeStyle;rounded=0;orthogonalLoop=1;jettySize=auto;html=1;" parent="1" edge="1">
          <mxGeometry relative="1" as="geometry">
            <mxPoint x="177" y="1420" as="sourcePoint" />
            <mxPoint x="177.5" y="1440" as="targetPoint" />
          </mxGeometry>
        </mxCell>
        <mxCell id="2pT8554tq2TcYR5QaNTi-63" value="" style="endArrow=none;html=1;rounded=0;" parent="1" edge="1">
          <mxGeometry width="50" height="50" relative="1" as="geometry">
            <mxPoint x="460" y="1560" as="sourcePoint" />
            <mxPoint x="460" y="1150" as="targetPoint" />
          </mxGeometry>
        </mxCell>
        <mxCell id="2pT8554tq2TcYR5QaNTi-64" value="" style="endArrow=none;html=1;rounded=0;" parent="1" edge="1">
          <mxGeometry width="50" height="50" relative="1" as="geometry">
            <mxPoint x="187" y="1560" as="sourcePoint" />
            <mxPoint x="187" y="1540" as="targetPoint" />
          </mxGeometry>
        </mxCell>
        <mxCell id="2pT8554tq2TcYR5QaNTi-65" value="" style="endArrow=none;html=1;rounded=0;" parent="1" edge="1">
          <mxGeometry width="50" height="50" relative="1" as="geometry">
            <mxPoint x="187.5" y="1560" as="sourcePoint" />
            <mxPoint x="460" y="1560" as="targetPoint" />
          </mxGeometry>
        </mxCell>
        <mxCell id="2pT8554tq2TcYR5QaNTi-77" value="[2]" style="rhombus;whiteSpace=wrap;html=1;" parent="1" vertex="1">
          <mxGeometry x="252.5" y="2030" width="156" height="100" as="geometry" />
        </mxCell>
        <mxCell id="2pT8554tq2TcYR5QaNTi-78" value="" style="endArrow=none;html=1;rounded=0;" parent="1" edge="1">
          <mxGeometry width="50" height="50" relative="1" as="geometry">
            <mxPoint x="405.5" y="2079.5" as="sourcePoint" />
            <mxPoint x="463.5" y="2080" as="targetPoint" />
          </mxGeometry>
        </mxCell>
        <mxCell id="2pT8554tq2TcYR5QaNTi-79" value="" style="endArrow=none;html=1;rounded=0;" parent="1" edge="1">
          <mxGeometry width="50" height="50" relative="1" as="geometry">
            <mxPoint x="184.5" y="2080" as="sourcePoint" />
            <mxPoint x="252.50067811865472" y="2079.5" as="targetPoint" />
          </mxGeometry>
        </mxCell>
        <mxCell id="2pT8554tq2TcYR5QaNTi-80" value="" style="endArrow=classic;html=1;rounded=0;" parent="1" edge="1">
          <mxGeometry width="50" height="50" relative="1" as="geometry">
            <mxPoint x="185" y="2080" as="sourcePoint" />
            <mxPoint x="185" y="2130" as="targetPoint" />
          </mxGeometry>
        </mxCell>
        <mxCell id="2pT8554tq2TcYR5QaNTi-81" value="&lt;span style=&quot;font-size: 12px;&quot;&gt;numbers += reading.substr(pos, 7) + &quot;\n&quot;;&lt;/span&gt;" style="rounded=1;whiteSpace=wrap;html=1;absoluteArcSize=1;arcSize=14;strokeWidth=2;" parent="1" vertex="1">
          <mxGeometry x="115" y="2130" width="155" height="100" as="geometry" />
        </mxCell>
        <mxCell id="2pT8554tq2TcYR5QaNTi-82" value="" style="edgeStyle=orthogonalEdgeStyle;rounded=0;orthogonalLoop=1;jettySize=auto;html=1;" parent="1" edge="1">
          <mxGeometry relative="1" as="geometry">
            <mxPoint x="185" y="2230" as="sourcePoint" />
            <mxPoint x="185.5" y="2250" as="targetPoint" />
          </mxGeometry>
        </mxCell>
        <mxCell id="2pT8554tq2TcYR5QaNTi-83" value="&lt;span style=&quot;font-size: 10px;&quot;&gt;&quot;Numbers find from &quot; &amp;lt;&amp;lt; pos &amp;lt;&amp;lt; &quot; &quot; &amp;lt;&amp;lt; &quot;to &quot; &amp;lt;&amp;lt; pos + 7&lt;/span&gt;" style="shape=parallelogram;perimeter=parallelogramPerimeter;whiteSpace=wrap;html=1;fixedSize=1;" parent="1" vertex="1">
          <mxGeometry x="115" y="2250" width="150" height="100" as="geometry" />
        </mxCell>
        <mxCell id="2pT8554tq2TcYR5QaNTi-84" value="&lt;div&gt;&lt;div&gt;&lt;span style=&quot;font-size: 12px;&quot;&gt;pos += 7;&lt;/span&gt;&lt;/div&gt;&lt;div&gt;&lt;span style=&quot;font-size: 12px; white-space: normal;&quot;&gt;&lt;span style=&quot;white-space:pre&quot;&gt;&#x9;&lt;/span&gt;findNumbers = true;&lt;/span&gt;&lt;/div&gt;&lt;/div&gt;" style="rounded=1;whiteSpace=wrap;html=1;absoluteArcSize=1;arcSize=14;strokeWidth=2;" parent="1" vertex="1">
          <mxGeometry x="110" y="2370" width="155" height="100" as="geometry" />
        </mxCell>
        <mxCell id="2pT8554tq2TcYR5QaNTi-85" value="" style="edgeStyle=orthogonalEdgeStyle;rounded=0;orthogonalLoop=1;jettySize=auto;html=1;" parent="1" edge="1">
          <mxGeometry relative="1" as="geometry">
            <mxPoint x="182" y="2350" as="sourcePoint" />
            <mxPoint x="182.5" y="2370" as="targetPoint" />
          </mxGeometry>
        </mxCell>
        <mxCell id="2pT8554tq2TcYR5QaNTi-86" value="" style="endArrow=none;html=1;rounded=0;" parent="1" edge="1">
          <mxGeometry width="50" height="50" relative="1" as="geometry">
            <mxPoint x="465" y="2490" as="sourcePoint" />
            <mxPoint x="465" y="2080" as="targetPoint" />
          </mxGeometry>
        </mxCell>
        <mxCell id="2pT8554tq2TcYR5QaNTi-87" value="" style="endArrow=none;html=1;rounded=0;" parent="1" edge="1">
          <mxGeometry width="50" height="50" relative="1" as="geometry">
            <mxPoint x="192" y="2490" as="sourcePoint" />
            <mxPoint x="192" y="2470" as="targetPoint" />
          </mxGeometry>
        </mxCell>
        <mxCell id="2pT8554tq2TcYR5QaNTi-88" value="" style="endArrow=none;html=1;rounded=0;" parent="1" edge="1">
          <mxGeometry width="50" height="50" relative="1" as="geometry">
            <mxPoint x="192.5" y="2490" as="sourcePoint" />
            <mxPoint x="465" y="2490" as="targetPoint" />
          </mxGeometry>
        </mxCell>
        <mxCell id="2pT8554tq2TcYR5QaNTi-89" value="" style="edgeStyle=orthogonalEdgeStyle;rounded=0;orthogonalLoop=1;jettySize=auto;html=1;" parent="1" edge="1">
          <mxGeometry relative="1" as="geometry">
            <mxPoint x="325" y="1560" as="sourcePoint" />
            <mxPoint x="325.5" y="1580" as="targetPoint" />
          </mxGeometry>
        </mxCell>
        <mxCell id="2pT8554tq2TcYR5QaNTi-90" value="" style="endArrow=none;html=1;rounded=0;" parent="1" edge="1">
          <mxGeometry width="50" height="50" relative="1" as="geometry">
            <mxPoint x="403.5" y="1029.5" as="sourcePoint" />
            <mxPoint x="520" y="1030" as="targetPoint" />
          </mxGeometry>
        </mxCell>
        <mxCell id="2pT8554tq2TcYR5QaNTi-91" value="" style="endArrow=none;html=1;rounded=0;" parent="1" edge="1">
          <mxGeometry width="50" height="50" relative="1" as="geometry">
            <mxPoint x="520" y="1440" as="sourcePoint" />
            <mxPoint x="520" y="1030" as="targetPoint" />
          </mxGeometry>
        </mxCell>
        <mxCell id="2pT8554tq2TcYR5QaNTi-92" value="1" style="ellipse;whiteSpace=wrap;html=1;aspect=fixed;" parent="1" vertex="1">
          <mxGeometry x="300.5" y="1580" width="50" height="50" as="geometry" />
        </mxCell>
        <mxCell id="2pT8554tq2TcYR5QaNTi-93" value="" style="strokeWidth=2;html=1;shape=mxgraph.flowchart.annotation_2;align=left;labelPosition=right;pointerEvents=1;rotation=0;" parent="1" vertex="1">
          <mxGeometry x="375" y="1580" width="30" height="50" as="geometry" />
        </mxCell>
        <mxCell id="2pT8554tq2TcYR5QaNTi-94" value="" style="endArrow=none;dashed=1;html=1;rounded=0;" parent="1" edge="1">
          <mxGeometry width="50" height="50" relative="1" as="geometry">
            <mxPoint x="350.5" y="1604.5" as="sourcePoint" />
            <mxPoint x="370.5" y="1604.5" as="targetPoint" />
          </mxGeometry>
        </mxCell>
        <mxCell id="2pT8554tq2TcYR5QaNTi-95" value="из бл2 стр7 в бл6 стр8" style="text;html=1;strokeColor=none;fillColor=none;align=center;verticalAlign=middle;whiteSpace=wrap;rounded=0;" parent="1" vertex="1">
          <mxGeometry x="395.5" y="1580" width="60" height="45" as="geometry" />
        </mxCell>
        <mxCell id="2pT8554tq2TcYR5QaNTi-96" value="" style="edgeStyle=orthogonalEdgeStyle;rounded=0;orthogonalLoop=1;jettySize=auto;html=1;" parent="1" edge="1">
          <mxGeometry relative="1" as="geometry">
            <mxPoint x="520" y="1440" as="sourcePoint" />
            <mxPoint x="520.5" y="1460" as="targetPoint" />
          </mxGeometry>
        </mxCell>
        <mxCell id="2pT8554tq2TcYR5QaNTi-101" value="2" style="ellipse;whiteSpace=wrap;html=1;aspect=fixed;" parent="1" vertex="1">
          <mxGeometry x="500" y="1460" width="50" height="50" as="geometry" />
        </mxCell>
        <mxCell id="2pT8554tq2TcYR5QaNTi-102" value="" style="strokeWidth=2;html=1;shape=mxgraph.flowchart.annotation_2;align=left;labelPosition=right;pointerEvents=1;rotation=0;" parent="1" vertex="1">
          <mxGeometry x="574.5" y="1460" width="30" height="50" as="geometry" />
        </mxCell>
        <mxCell id="2pT8554tq2TcYR5QaNTi-103" value="" style="endArrow=none;dashed=1;html=1;rounded=0;" parent="1" edge="1">
          <mxGeometry width="50" height="50" relative="1" as="geometry">
            <mxPoint x="550" y="1484.5" as="sourcePoint" />
            <mxPoint x="570" y="1484.5" as="targetPoint" />
          </mxGeometry>
        </mxCell>
        <mxCell id="2pT8554tq2TcYR5QaNTi-104" value="из бл1 стр7 в бл10 стр8" style="text;html=1;strokeColor=none;fillColor=none;align=center;verticalAlign=middle;whiteSpace=wrap;rounded=0;" parent="1" vertex="1">
          <mxGeometry x="595" y="1460" width="60" height="45" as="geometry" />
        </mxCell>
        <mxCell id="2pT8554tq2TcYR5QaNTi-105" value="1" style="ellipse;whiteSpace=wrap;html=1;aspect=fixed;" parent="1" vertex="1">
          <mxGeometry x="308" y="1960" width="50" height="50" as="geometry" />
        </mxCell>
        <mxCell id="2pT8554tq2TcYR5QaNTi-106" value="" style="strokeWidth=2;html=1;shape=mxgraph.flowchart.annotation_2;align=left;labelPosition=right;pointerEvents=1;rotation=0;" parent="1" vertex="1">
          <mxGeometry x="382.5" y="1960" width="30" height="50" as="geometry" />
        </mxCell>
        <mxCell id="2pT8554tq2TcYR5QaNTi-107" value="" style="endArrow=none;dashed=1;html=1;rounded=0;" parent="1" edge="1">
          <mxGeometry width="50" height="50" relative="1" as="geometry">
            <mxPoint x="358" y="1984.5" as="sourcePoint" />
            <mxPoint x="378" y="1984.5" as="targetPoint" />
          </mxGeometry>
        </mxCell>
        <mxCell id="2pT8554tq2TcYR5QaNTi-109" value="" style="edgeStyle=orthogonalEdgeStyle;rounded=0;orthogonalLoop=1;jettySize=auto;html=1;" parent="1" edge="1">
          <mxGeometry relative="1" as="geometry">
            <mxPoint x="330" y="2010" as="sourcePoint" />
            <mxPoint x="330.5" y="2030" as="targetPoint" />
          </mxGeometry>
        </mxCell>
        <mxCell id="2pT8554tq2TcYR5QaNTi-110" value="" style="endArrow=none;html=1;rounded=0;" parent="1" edge="1">
          <mxGeometry width="50" height="50" relative="1" as="geometry">
            <mxPoint x="330" y="2510" as="sourcePoint" />
            <mxPoint x="330" y="2490" as="targetPoint" />
          </mxGeometry>
        </mxCell>
        <mxCell id="2pT8554tq2TcYR5QaNTi-111" value="" style="endArrow=none;html=1;rounded=0;" parent="1" edge="1">
          <mxGeometry width="50" height="50" relative="1" as="geometry">
            <mxPoint x="80" y="2510" as="sourcePoint" />
            <mxPoint x="330" y="2510" as="targetPoint" />
          </mxGeometry>
        </mxCell>
        <mxCell id="2pT8554tq2TcYR5QaNTi-113" value="3" style="ellipse;whiteSpace=wrap;html=1;aspect=fixed;" parent="1" vertex="1">
          <mxGeometry x="52.5" y="1990" width="50" height="50" as="geometry" />
        </mxCell>
        <mxCell id="2pT8554tq2TcYR5QaNTi-114" value="" style="strokeWidth=2;html=1;shape=mxgraph.flowchart.annotation_2;align=left;labelPosition=right;pointerEvents=1;rotation=0;" parent="1" vertex="1">
          <mxGeometry x="127" y="1990" width="30" height="50" as="geometry" />
        </mxCell>
        <mxCell id="2pT8554tq2TcYR5QaNTi-115" value="" style="endArrow=none;dashed=1;html=1;rounded=0;" parent="1" edge="1">
          <mxGeometry width="50" height="50" relative="1" as="geometry">
            <mxPoint x="102.5" y="2014.5" as="sourcePoint" />
            <mxPoint x="122.5" y="2014.5" as="targetPoint" />
          </mxGeometry>
        </mxCell>
        <mxCell id="2pT8554tq2TcYR5QaNTi-116" value="из бл6 стр8 в бл1 стр7" style="text;html=1;strokeColor=none;fillColor=none;align=center;verticalAlign=middle;whiteSpace=wrap;rounded=0;" parent="1" vertex="1">
          <mxGeometry x="147.5" y="1990" width="60" height="45" as="geometry" />
        </mxCell>
        <mxCell id="2pT8554tq2TcYR5QaNTi-118" value="3" style="ellipse;whiteSpace=wrap;html=1;aspect=fixed;" parent="1" vertex="1">
          <mxGeometry x="-40" y="1300" width="50" height="50" as="geometry" />
        </mxCell>
        <mxCell id="2pT8554tq2TcYR5QaNTi-119" value="" style="strokeWidth=2;html=1;shape=mxgraph.flowchart.annotation_2;align=left;labelPosition=right;pointerEvents=1;rotation=0;" parent="1" vertex="1">
          <mxGeometry x="34.5" y="1300" width="30" height="50" as="geometry" />
        </mxCell>
        <mxCell id="2pT8554tq2TcYR5QaNTi-120" value="" style="endArrow=none;dashed=1;html=1;rounded=0;" parent="1" edge="1">
          <mxGeometry width="50" height="50" relative="1" as="geometry">
            <mxPoint x="10" y="1324.5" as="sourcePoint" />
            <mxPoint x="30" y="1324.5" as="targetPoint" />
          </mxGeometry>
        </mxCell>
        <mxCell id="2pT8554tq2TcYR5QaNTi-122" value="" style="endArrow=none;html=1;rounded=0;" parent="1" edge="1">
          <mxGeometry width="50" height="50" relative="1" as="geometry">
            <mxPoint x="-15.5" y="1300" as="sourcePoint" />
            <mxPoint x="-15" y="1030" as="targetPoint" />
          </mxGeometry>
        </mxCell>
        <mxCell id="2pT8554tq2TcYR5QaNTi-123" value="" style="endArrow=classic;html=1;rounded=0;" parent="1" edge="1">
          <mxGeometry width="50" height="50" relative="1" as="geometry">
            <mxPoint x="-20" y="1030" as="sourcePoint" />
            <mxPoint x="252.5" y="1029.5" as="targetPoint" />
          </mxGeometry>
        </mxCell>
        <mxCell id="2pT8554tq2TcYR5QaNTi-124" value="2" style="ellipse;whiteSpace=wrap;html=1;aspect=fixed;" parent="1" vertex="1">
          <mxGeometry x="530" y="2240" width="50" height="50" as="geometry" />
        </mxCell>
        <mxCell id="2pT8554tq2TcYR5QaNTi-125" value="" style="strokeWidth=2;html=1;shape=mxgraph.flowchart.annotation_2;align=left;labelPosition=right;pointerEvents=1;rotation=0;" parent="1" vertex="1">
          <mxGeometry x="604.5" y="2240" width="30" height="50" as="geometry" />
        </mxCell>
        <mxCell id="2pT8554tq2TcYR5QaNTi-126" value="" style="endArrow=none;dashed=1;html=1;rounded=0;" parent="1" edge="1">
          <mxGeometry width="50" height="50" relative="1" as="geometry">
            <mxPoint x="580" y="2264.5" as="sourcePoint" />
            <mxPoint x="600" y="2264.5" as="targetPoint" />
          </mxGeometry>
        </mxCell>
        <mxCell id="2pT8554tq2TcYR5QaNTi-128" value="" style="endArrow=none;html=1;rounded=0;" parent="1" edge="1">
          <mxGeometry width="50" height="50" relative="1" as="geometry">
            <mxPoint x="555" y="2520" as="sourcePoint" />
            <mxPoint x="554.5" y="2290" as="targetPoint" />
          </mxGeometry>
        </mxCell>
        <mxCell id="2pT8554tq2TcYR5QaNTi-129" value="" style="endArrow=none;html=1;rounded=0;" parent="1" edge="1">
          <mxGeometry width="50" height="50" relative="1" as="geometry">
            <mxPoint x="330" y="2520" as="sourcePoint" />
            <mxPoint x="555" y="2520" as="targetPoint" />
          </mxGeometry>
        </mxCell>
        <mxCell id="2pT8554tq2TcYR5QaNTi-131" value="" style="edgeStyle=orthogonalEdgeStyle;rounded=0;orthogonalLoop=1;jettySize=auto;html=1;" parent="1" edge="1">
          <mxGeometry relative="1" as="geometry">
            <mxPoint x="332.5" y="2520" as="sourcePoint" />
            <mxPoint x="333" y="2540" as="targetPoint" />
          </mxGeometry>
        </mxCell>
        <mxCell id="2pT8554tq2TcYR5QaNTi-134" value="&lt;span style=&quot;font-size: 12px;&quot;&gt;!findNumbers&lt;/span&gt;" style="rhombus;whiteSpace=wrap;html=1;" parent="1" vertex="1">
          <mxGeometry x="255" y="2540" width="156" height="100" as="geometry" />
        </mxCell>
        <mxCell id="2pT8554tq2TcYR5QaNTi-135" value="" style="endArrow=none;html=1;rounded=0;" parent="1" edge="1">
          <mxGeometry width="50" height="50" relative="1" as="geometry">
            <mxPoint x="409" y="2589.5" as="sourcePoint" />
            <mxPoint x="467" y="2590" as="targetPoint" />
          </mxGeometry>
        </mxCell>
        <mxCell id="2pT8554tq2TcYR5QaNTi-136" value="" style="endArrow=classic;html=1;rounded=0;" parent="1" edge="1">
          <mxGeometry width="50" height="50" relative="1" as="geometry">
            <mxPoint x="467" y="2590" as="sourcePoint" />
            <mxPoint x="467" y="2640" as="targetPoint" />
          </mxGeometry>
        </mxCell>
        <mxCell id="2pT8554tq2TcYR5QaNTi-137" value="&lt;span style=&quot;font-size: 12px;&quot;&gt;&quot;Your numbers:&quot;&lt;/span&gt;" style="shape=parallelogram;perimeter=parallelogramPerimeter;whiteSpace=wrap;html=1;fixedSize=1;" parent="1" vertex="1">
          <mxGeometry x="387" y="2640" width="150" height="100" as="geometry" />
        </mxCell>
        <mxCell id="2pT8554tq2TcYR5QaNTi-138" value="" style="endArrow=none;html=1;rounded=0;" parent="1" edge="1">
          <mxGeometry width="50" height="50" relative="1" as="geometry">
            <mxPoint x="187" y="2590" as="sourcePoint" />
            <mxPoint x="255.00067811865472" y="2589.5" as="targetPoint" />
          </mxGeometry>
        </mxCell>
        <mxCell id="2pT8554tq2TcYR5QaNTi-139" value="" style="endArrow=classic;html=1;rounded=0;" parent="1" edge="1">
          <mxGeometry width="50" height="50" relative="1" as="geometry">
            <mxPoint x="187" y="2590" as="sourcePoint" />
            <mxPoint x="187" y="2640" as="targetPoint" />
          </mxGeometry>
        </mxCell>
        <mxCell id="2pT8554tq2TcYR5QaNTi-141" value="" style="endArrow=none;html=1;rounded=0;" parent="1" edge="1">
          <mxGeometry width="50" height="50" relative="1" as="geometry">
            <mxPoint x="187" y="2760" as="sourcePoint" />
            <mxPoint x="187" y="2740" as="targetPoint" />
          </mxGeometry>
        </mxCell>
        <mxCell id="2pT8554tq2TcYR5QaNTi-142" value="" style="endArrow=none;html=1;rounded=0;" parent="1" edge="1">
          <mxGeometry width="50" height="50" relative="1" as="geometry">
            <mxPoint x="462" y="2760" as="sourcePoint" />
            <mxPoint x="461.5" y="2740" as="targetPoint" />
          </mxGeometry>
        </mxCell>
        <mxCell id="2pT8554tq2TcYR5QaNTi-143" value="" style="endArrow=none;html=1;rounded=0;" parent="1" edge="1">
          <mxGeometry width="50" height="50" relative="1" as="geometry">
            <mxPoint x="187" y="2760" as="sourcePoint" />
            <mxPoint x="467" y="2760" as="targetPoint" />
          </mxGeometry>
        </mxCell>
        <mxCell id="2pT8554tq2TcYR5QaNTi-144" value="&lt;span style=&quot;font-size: 12px;&quot;&gt;&quot;Numbers not found!&quot;&lt;/span&gt;" style="shape=parallelogram;perimeter=parallelogramPerimeter;whiteSpace=wrap;html=1;fixedSize=1;" parent="1" vertex="1">
          <mxGeometry x="114" y="2640" width="150" height="100" as="geometry" />
        </mxCell>
        <mxCell id="2pT8554tq2TcYR5QaNTi-145" value="" style="edgeStyle=orthogonalEdgeStyle;rounded=0;orthogonalLoop=1;jettySize=auto;html=1;" parent="1" edge="1">
          <mxGeometry relative="1" as="geometry">
            <mxPoint x="332.5" y="2760" as="sourcePoint" />
            <mxPoint x="333" y="2780" as="targetPoint" />
          </mxGeometry>
        </mxCell>
        <mxCell id="2pT8554tq2TcYR5QaNTi-146" value="4" style="ellipse;whiteSpace=wrap;html=1;aspect=fixed;" parent="1" vertex="1">
          <mxGeometry x="308" y="2780" width="50" height="50" as="geometry" />
        </mxCell>
        <mxCell id="2pT8554tq2TcYR5QaNTi-147" value="" style="strokeWidth=2;html=1;shape=mxgraph.flowchart.annotation_2;align=left;labelPosition=right;pointerEvents=1;rotation=0;" parent="1" vertex="1">
          <mxGeometry x="382.5" y="2780" width="30" height="50" as="geometry" />
        </mxCell>
        <mxCell id="2pT8554tq2TcYR5QaNTi-148" value="" style="endArrow=none;dashed=1;html=1;rounded=0;" parent="1" edge="1">
          <mxGeometry width="50" height="50" relative="1" as="geometry">
            <mxPoint x="358" y="2804.5" as="sourcePoint" />
            <mxPoint x="378" y="2804.5" as="targetPoint" />
          </mxGeometry>
        </mxCell>
        <mxCell id="2pT8554tq2TcYR5QaNTi-149" value="из бл10 стр8 в бл13 стр9" style="text;html=1;strokeColor=none;fillColor=none;align=center;verticalAlign=middle;whiteSpace=wrap;rounded=0;" parent="1" vertex="1">
          <mxGeometry x="403" y="2780" width="60" height="45" as="geometry" />
        </mxCell>
        <mxCell id="2pT8554tq2TcYR5QaNTi-150" value="4" style="ellipse;whiteSpace=wrap;html=1;aspect=fixed;" parent="1" vertex="1">
          <mxGeometry x="312.5" y="2960" width="50" height="50" as="geometry" />
        </mxCell>
        <mxCell id="2pT8554tq2TcYR5QaNTi-151" value="" style="strokeWidth=2;html=1;shape=mxgraph.flowchart.annotation_2;align=left;labelPosition=right;pointerEvents=1;rotation=0;" parent="1" vertex="1">
          <mxGeometry x="387" y="2960" width="30" height="50" as="geometry" />
        </mxCell>
        <mxCell id="2pT8554tq2TcYR5QaNTi-152" value="" style="endArrow=none;dashed=1;html=1;rounded=0;" parent="1" edge="1">
          <mxGeometry width="50" height="50" relative="1" as="geometry">
            <mxPoint x="362.5" y="2984.5" as="sourcePoint" />
            <mxPoint x="382.5" y="2984.5" as="targetPoint" />
          </mxGeometry>
        </mxCell>
        <mxCell id="2pT8554tq2TcYR5QaNTi-154" value="" style="edgeStyle=orthogonalEdgeStyle;rounded=0;orthogonalLoop=1;jettySize=auto;html=1;" parent="1" edge="1">
          <mxGeometry relative="1" as="geometry">
            <mxPoint x="337" y="3010" as="sourcePoint" />
            <mxPoint x="337.5" y="3030" as="targetPoint" />
          </mxGeometry>
        </mxCell>
        <mxCell id="2pT8554tq2TcYR5QaNTi-155" value="&lt;span style=&quot;font-size: 12px;&quot;&gt;ofstream fout;&lt;/span&gt;" style="rounded=1;whiteSpace=wrap;html=1;absoluteArcSize=1;arcSize=14;strokeWidth=2;" parent="1" vertex="1">
          <mxGeometry x="264.25" y="3030" width="155" height="100" as="geometry" />
        </mxCell>
        <mxCell id="2pT8554tq2TcYR5QaNTi-156" value="" style="edgeStyle=orthogonalEdgeStyle;rounded=0;orthogonalLoop=1;jettySize=auto;html=1;" parent="1" edge="1">
          <mxGeometry relative="1" as="geometry">
            <mxPoint x="340.75" y="3130" as="sourcePoint" />
            <mxPoint x="341.25" y="3150" as="targetPoint" />
          </mxGeometry>
        </mxCell>
        <mxCell id="2pT8554tq2TcYR5QaNTi-159" value="&lt;span style=&quot;font-size: 12px;&quot;&gt;fout.open(&quot;Output.txt&quot;);&lt;/span&gt;" style="shape=process;whiteSpace=wrap;html=1;backgroundOutline=1;" parent="1" vertex="1">
          <mxGeometry x="266.5" y="3150" width="155" height="100" as="geometry" />
        </mxCell>
        <mxCell id="2pT8554tq2TcYR5QaNTi-160" value="&lt;span style=&quot;font-size: 12px;&quot;&gt;(fout.is_open())&amp;nbsp;&lt;/span&gt;" style="rhombus;whiteSpace=wrap;html=1;" parent="1" vertex="1">
          <mxGeometry x="266.5" y="3270" width="156" height="100" as="geometry" />
        </mxCell>
        <mxCell id="2pT8554tq2TcYR5QaNTi-161" value="" style="edgeStyle=orthogonalEdgeStyle;rounded=0;orthogonalLoop=1;jettySize=auto;html=1;" parent="1" edge="1">
          <mxGeometry relative="1" as="geometry">
            <mxPoint x="343.5" y="3250" as="sourcePoint" />
            <mxPoint x="344" y="3270" as="targetPoint" />
          </mxGeometry>
        </mxCell>
        <mxCell id="2pT8554tq2TcYR5QaNTi-162" value="" style="endArrow=none;html=1;rounded=0;" parent="1" source="2pT8554tq2TcYR5QaNTi-160" edge="1">
          <mxGeometry width="50" height="50" relative="1" as="geometry">
            <mxPoint x="422.5" y="3370" as="sourcePoint" />
            <mxPoint x="486.5" y="3320" as="targetPoint" />
          </mxGeometry>
        </mxCell>
        <mxCell id="2pT8554tq2TcYR5QaNTi-163" value="" style="endArrow=none;html=1;rounded=0;" parent="1" edge="1">
          <mxGeometry width="50" height="50" relative="1" as="geometry">
            <mxPoint x="195.79" y="3319.5" as="sourcePoint" />
            <mxPoint x="266.5006781186547" y="3319.5" as="targetPoint" />
          </mxGeometry>
        </mxCell>
        <mxCell id="2pT8554tq2TcYR5QaNTi-164" value="" style="endArrow=classic;html=1;rounded=0;" parent="1" edge="1">
          <mxGeometry width="50" height="50" relative="1" as="geometry">
            <mxPoint x="196.5" y="3320" as="sourcePoint" />
            <mxPoint x="196.5" y="3370" as="targetPoint" />
          </mxGeometry>
        </mxCell>
        <mxCell id="2pT8554tq2TcYR5QaNTi-165" value="" style="endArrow=classic;html=1;rounded=0;" parent="1" edge="1">
          <mxGeometry width="50" height="50" relative="1" as="geometry">
            <mxPoint x="486.5" y="3320" as="sourcePoint" />
            <mxPoint x="486.5" y="3370" as="targetPoint" />
          </mxGeometry>
        </mxCell>
        <mxCell id="2pT8554tq2TcYR5QaNTi-166" value="&lt;span style=&quot;font-size: 12px;&quot;&gt;fout &amp;lt;&amp;lt; numbers;&lt;/span&gt;" style="shape=parallelogram;perimeter=parallelogramPerimeter;whiteSpace=wrap;html=1;fixedSize=1;" parent="1" vertex="1">
          <mxGeometry x="116.5" y="3370" width="150" height="100" as="geometry" />
        </mxCell>
        <mxCell id="2pT8554tq2TcYR5QaNTi-167" value="" style="edgeStyle=orthogonalEdgeStyle;rounded=0;orthogonalLoop=1;jettySize=auto;html=1;" parent="1" edge="1">
          <mxGeometry relative="1" as="geometry">
            <mxPoint x="196.5" y="3470" as="sourcePoint" />
            <mxPoint x="197" y="3490" as="targetPoint" />
          </mxGeometry>
        </mxCell>
        <mxCell id="2pT8554tq2TcYR5QaNTi-168" value="&lt;span style=&quot;font-size: 12px;&quot;&gt;fout.close();&lt;/span&gt;" style="shape=process;whiteSpace=wrap;html=1;backgroundOutline=1;" parent="1" vertex="1">
          <mxGeometry x="114" y="3490" width="155" height="100" as="geometry" />
        </mxCell>
        <mxCell id="2pT8554tq2TcYR5QaNTi-169" value="&lt;span style=&quot;font-size: 12px;&quot;&gt;&quot;File not found!&quot;&lt;/span&gt;" style="shape=parallelogram;perimeter=parallelogramPerimeter;whiteSpace=wrap;html=1;fixedSize=1;" parent="1" vertex="1">
          <mxGeometry x="406.5" y="3370" width="150" height="100" as="geometry" />
        </mxCell>
        <mxCell id="2pT8554tq2TcYR5QaNTi-170" value="" style="endArrow=none;html=1;rounded=0;" parent="1" edge="1">
          <mxGeometry width="50" height="50" relative="1" as="geometry">
            <mxPoint x="481.5" y="3610" as="sourcePoint" />
            <mxPoint x="481" y="3470" as="targetPoint" />
          </mxGeometry>
        </mxCell>
        <mxCell id="2pT8554tq2TcYR5QaNTi-171" value="" style="endArrow=none;html=1;rounded=0;" parent="1" edge="1">
          <mxGeometry width="50" height="50" relative="1" as="geometry">
            <mxPoint x="186.5" y="3610" as="sourcePoint" />
            <mxPoint x="186.5" y="3590" as="targetPoint" />
          </mxGeometry>
        </mxCell>
        <mxCell id="2pT8554tq2TcYR5QaNTi-172" value="" style="endArrow=none;html=1;rounded=0;" parent="1" edge="1">
          <mxGeometry width="50" height="50" relative="1" as="geometry">
            <mxPoint x="186.5" y="3610" as="sourcePoint" />
            <mxPoint x="486.5" y="3610" as="targetPoint" />
          </mxGeometry>
        </mxCell>
        <mxCell id="2pT8554tq2TcYR5QaNTi-173" value="" style="edgeStyle=orthogonalEdgeStyle;rounded=0;orthogonalLoop=1;jettySize=auto;html=1;" parent="1" edge="1">
          <mxGeometry relative="1" as="geometry">
            <mxPoint x="341.25" y="3610" as="sourcePoint" />
            <mxPoint x="341.75" y="3630" as="targetPoint" />
          </mxGeometry>
        </mxCell>
        <mxCell id="2pT8554tq2TcYR5QaNTi-174" value="5" style="ellipse;whiteSpace=wrap;html=1;aspect=fixed;" parent="1" vertex="1">
          <mxGeometry x="320" y="3630" width="50" height="50" as="geometry" />
        </mxCell>
        <mxCell id="2pT8554tq2TcYR5QaNTi-175" value="" style="strokeWidth=2;html=1;shape=mxgraph.flowchart.annotation_2;align=left;labelPosition=right;pointerEvents=1;rotation=0;" parent="1" vertex="1">
          <mxGeometry x="394.5" y="3630" width="30" height="50" as="geometry" />
        </mxCell>
        <mxCell id="2pT8554tq2TcYR5QaNTi-176" value="" style="endArrow=none;dashed=1;html=1;rounded=0;" parent="1" edge="1">
          <mxGeometry width="50" height="50" relative="1" as="geometry">
            <mxPoint x="370" y="3654.5" as="sourcePoint" />
            <mxPoint x="390" y="3654.5" as="targetPoint" />
          </mxGeometry>
        </mxCell>
        <mxCell id="2pT8554tq2TcYR5QaNTi-177" value="из бл15 стр9 в бл19 стр10" style="text;html=1;strokeColor=none;fillColor=none;align=center;verticalAlign=middle;whiteSpace=wrap;rounded=0;" parent="1" vertex="1">
          <mxGeometry x="415" y="3630" width="60" height="45" as="geometry" />
        </mxCell>
        <mxCell id="2pT8554tq2TcYR5QaNTi-178" value="5" style="ellipse;whiteSpace=wrap;html=1;aspect=fixed;" parent="1" vertex="1">
          <mxGeometry x="332" y="3960" width="50" height="50" as="geometry" />
        </mxCell>
        <mxCell id="2pT8554tq2TcYR5QaNTi-179" value="" style="strokeWidth=2;html=1;shape=mxgraph.flowchart.annotation_2;align=left;labelPosition=right;pointerEvents=1;rotation=0;" parent="1" vertex="1">
          <mxGeometry x="406.5" y="3960" width="30" height="50" as="geometry" />
        </mxCell>
        <mxCell id="2pT8554tq2TcYR5QaNTi-180" value="" style="endArrow=none;dashed=1;html=1;rounded=0;" parent="1" edge="1">
          <mxGeometry width="50" height="50" relative="1" as="geometry">
            <mxPoint x="382" y="3984.5" as="sourcePoint" />
            <mxPoint x="402" y="3984.5" as="targetPoint" />
          </mxGeometry>
        </mxCell>
        <mxCell id="2pT8554tq2TcYR5QaNTi-182" value="" style="edgeStyle=orthogonalEdgeStyle;rounded=0;orthogonalLoop=1;jettySize=auto;html=1;" parent="1" edge="1">
          <mxGeometry relative="1" as="geometry">
            <mxPoint x="358" y="4010" as="sourcePoint" />
            <mxPoint x="358.5" y="4030" as="targetPoint" />
          </mxGeometry>
        </mxCell>
        <mxCell id="2pT8554tq2TcYR5QaNTi-183" value="&lt;span style=&quot;font-size: 12px;&quot;&gt;ifstream fin(&quot;Input.txt&quot;);&lt;/span&gt;" style="shape=process;whiteSpace=wrap;html=1;backgroundOutline=1;" parent="1" vertex="1">
          <mxGeometry x="285" y="4030" width="155" height="100" as="geometry" />
        </mxCell>
        <mxCell id="2pT8554tq2TcYR5QaNTi-184" value="" style="edgeStyle=orthogonalEdgeStyle;rounded=0;orthogonalLoop=1;jettySize=auto;html=1;" parent="1" edge="1">
          <mxGeometry relative="1" as="geometry">
            <mxPoint x="361.5" y="4130" as="sourcePoint" />
            <mxPoint x="362" y="4150" as="targetPoint" />
          </mxGeometry>
        </mxCell>
        <mxCell id="2pT8554tq2TcYR5QaNTi-185" value="&lt;span style=&quot;font-size: 12px;&quot;&gt;in.is_open()&lt;/span&gt;" style="rhombus;whiteSpace=wrap;html=1;" parent="1" vertex="1">
          <mxGeometry x="283" y="4150" width="156" height="100" as="geometry" />
        </mxCell>
        <mxCell id="2pT8554tq2TcYR5QaNTi-186" value="" style="endArrow=none;html=1;rounded=0;" parent="1" edge="1">
          <mxGeometry width="50" height="50" relative="1" as="geometry">
            <mxPoint x="437" y="4199.5" as="sourcePoint" />
            <mxPoint x="495" y="4200" as="targetPoint" />
          </mxGeometry>
        </mxCell>
        <mxCell id="2pT8554tq2TcYR5QaNTi-187" value="" style="endArrow=classic;html=1;rounded=0;" parent="1" edge="1">
          <mxGeometry width="50" height="50" relative="1" as="geometry">
            <mxPoint x="495" y="4200" as="sourcePoint" />
            <mxPoint x="495" y="4250" as="targetPoint" />
          </mxGeometry>
        </mxCell>
        <mxCell id="2pT8554tq2TcYR5QaNTi-188" value="&lt;span style=&quot;font-size: 12px;&quot;&gt;&quot;File not open!&quot;&lt;/span&gt;" style="shape=parallelogram;perimeter=parallelogramPerimeter;whiteSpace=wrap;html=1;fixedSize=1;" parent="1" vertex="1">
          <mxGeometry x="415" y="4250" width="150" height="100" as="geometry" />
        </mxCell>
        <mxCell id="2pT8554tq2TcYR5QaNTi-189" value="" style="endArrow=none;html=1;rounded=0;" parent="1" edge="1">
          <mxGeometry width="50" height="50" relative="1" as="geometry">
            <mxPoint x="215" y="4200" as="sourcePoint" />
            <mxPoint x="283.0006781186547" y="4199.5" as="targetPoint" />
          </mxGeometry>
        </mxCell>
        <mxCell id="2pT8554tq2TcYR5QaNTi-190" value="" style="endArrow=classic;html=1;rounded=0;" parent="1" edge="1">
          <mxGeometry width="50" height="50" relative="1" as="geometry">
            <mxPoint x="215" y="4200" as="sourcePoint" />
            <mxPoint x="215" y="4250" as="targetPoint" />
          </mxGeometry>
        </mxCell>
        <mxCell id="2pT8554tq2TcYR5QaNTi-193" value="" style="endArrow=none;html=1;rounded=0;" parent="1" edge="1">
          <mxGeometry width="50" height="50" relative="1" as="geometry">
            <mxPoint x="490" y="4520" as="sourcePoint" />
            <mxPoint x="489.5" y="4350" as="targetPoint" />
          </mxGeometry>
        </mxCell>
        <mxCell id="2pT8554tq2TcYR5QaNTi-194" value="" style="endArrow=none;html=1;rounded=0;" parent="1" edge="1">
          <mxGeometry width="50" height="50" relative="1" as="geometry">
            <mxPoint x="217" y="4520" as="sourcePoint" />
            <mxPoint x="497" y="4520" as="targetPoint" />
          </mxGeometry>
        </mxCell>
        <mxCell id="2pT8554tq2TcYR5QaNTi-197" value="&lt;span style=&quot;font-size: 12px;&quot;&gt;getline(in, output)&lt;/span&gt;" style="rhombus;whiteSpace=wrap;html=1;" parent="1" vertex="1">
          <mxGeometry x="140" y="4250" width="156" height="100" as="geometry" />
        </mxCell>
        <mxCell id="2pT8554tq2TcYR5QaNTi-198" value="" style="edgeStyle=orthogonalEdgeStyle;rounded=0;orthogonalLoop=1;jettySize=auto;html=1;" parent="1" edge="1">
          <mxGeometry relative="1" as="geometry">
            <mxPoint x="217.5" y="4350" as="sourcePoint" />
            <mxPoint x="218" y="4370" as="targetPoint" />
          </mxGeometry>
        </mxCell>
        <mxCell id="2pT8554tq2TcYR5QaNTi-199" value="&lt;span style=&quot;font-size: 12px;&quot;&gt;&amp;nbsp;output&lt;/span&gt;" style="shape=parallelogram;perimeter=parallelogramPerimeter;whiteSpace=wrap;html=1;fixedSize=1;" parent="1" vertex="1">
          <mxGeometry x="140" y="4370" width="150" height="100" as="geometry" />
        </mxCell>
        <mxCell id="2pT8554tq2TcYR5QaNTi-200" value="" style="endArrow=none;html=1;rounded=0;" parent="1" edge="1">
          <mxGeometry width="50" height="50" relative="1" as="geometry">
            <mxPoint x="295.5" y="4299.5" as="sourcePoint" />
            <mxPoint x="355.5" y="4299.5" as="targetPoint" />
          </mxGeometry>
        </mxCell>
        <mxCell id="2pT8554tq2TcYR5QaNTi-201" value="" style="endArrow=none;html=1;rounded=0;" parent="1" edge="1">
          <mxGeometry width="50" height="50" relative="1" as="geometry">
            <mxPoint x="357" y="4510" as="sourcePoint" />
            <mxPoint x="356.5" y="4300" as="targetPoint" />
          </mxGeometry>
        </mxCell>
        <mxCell id="2pT8554tq2TcYR5QaNTi-203" value="" style="endArrow=none;html=1;rounded=0;" parent="1" edge="1">
          <mxGeometry width="50" height="50" relative="1" as="geometry">
            <mxPoint x="215" y="4490" as="sourcePoint" />
            <mxPoint x="214.5" y="4470" as="targetPoint" />
          </mxGeometry>
        </mxCell>
        <mxCell id="2pT8554tq2TcYR5QaNTi-204" value="" style="endArrow=none;html=1;rounded=0;" parent="1" edge="1">
          <mxGeometry width="50" height="50" relative="1" as="geometry">
            <mxPoint x="120" y="4490" as="sourcePoint" />
            <mxPoint x="212.5" y="4490" as="targetPoint" />
          </mxGeometry>
        </mxCell>
        <mxCell id="2pT8554tq2TcYR5QaNTi-205" value="" style="endArrow=none;html=1;rounded=0;" parent="1" edge="1">
          <mxGeometry width="50" height="50" relative="1" as="geometry">
            <mxPoint x="124.5" y="4490" as="sourcePoint" />
            <mxPoint x="125" y="4300" as="targetPoint" />
          </mxGeometry>
        </mxCell>
        <mxCell id="2pT8554tq2TcYR5QaNTi-206" value="" style="endArrow=classic;html=1;rounded=0;" parent="1" edge="1">
          <mxGeometry width="50" height="50" relative="1" as="geometry">
            <mxPoint x="124.5" y="4299.5" as="sourcePoint" />
            <mxPoint x="140" y="4300" as="targetPoint" />
          </mxGeometry>
        </mxCell>
        <mxCell id="2pT8554tq2TcYR5QaNTi-207" value="" style="endArrow=none;html=1;rounded=0;" parent="1" edge="1">
          <mxGeometry width="50" height="50" relative="1" as="geometry">
            <mxPoint x="214.5" y="4520" as="sourcePoint" />
            <mxPoint x="214.5" y="4490" as="targetPoint" />
          </mxGeometry>
        </mxCell>
        <mxCell id="2pT8554tq2TcYR5QaNTi-208" value="" style="edgeStyle=orthogonalEdgeStyle;rounded=0;orthogonalLoop=1;jettySize=auto;html=1;" parent="1" edge="1">
          <mxGeometry relative="1" as="geometry">
            <mxPoint x="357" y="4500" as="sourcePoint" />
            <mxPoint x="357.5" y="4520" as="targetPoint" />
          </mxGeometry>
        </mxCell>
        <mxCell id="2pT8554tq2TcYR5QaNTi-209" value="" style="edgeStyle=orthogonalEdgeStyle;rounded=0;orthogonalLoop=1;jettySize=auto;html=1;" parent="1" edge="1">
          <mxGeometry relative="1" as="geometry">
            <mxPoint x="369" y="4520" as="sourcePoint" />
            <mxPoint x="369.5" y="4540" as="targetPoint" />
          </mxGeometry>
        </mxCell>
        <mxCell id="2pT8554tq2TcYR5QaNTi-210" value="конец&lt;div&gt;GetNumbersStationary&lt;/div&gt;" style="strokeWidth=2;html=1;shape=mxgraph.flowchart.terminator;whiteSpace=wrap;" parent="1" vertex="1">
          <mxGeometry x="296" y="4540" width="154" height="50" as="geometry" />
        </mxCell>
        <mxCell id="x0n5BMUEkLOeOddu-3SM-1" value="1" style="text;html=1;align=center;verticalAlign=middle;whiteSpace=wrap;rounded=0;fillColor=#f9f7ed;strokeColor=#36393d;" parent="1" vertex="1">
          <mxGeometry x="283" y="990" width="35" height="20" as="geometry" />
        </mxCell>
        <mxCell id="x0n5BMUEkLOeOddu-3SM-2" value="5" style="text;html=1;align=center;verticalAlign=middle;whiteSpace=wrap;rounded=0;fillColor=#f9f7ed;strokeColor=#36393d;" parent="1" vertex="1">
          <mxGeometry x="119.5" y="1440" width="35" height="20" as="geometry" />
        </mxCell>
        <mxCell id="x0n5BMUEkLOeOddu-3SM-3" value="4" style="text;html=1;align=center;verticalAlign=middle;whiteSpace=wrap;rounded=0;fillColor=#f9f7ed;strokeColor=#36393d;" parent="1" vertex="1">
          <mxGeometry x="139.5" y="1315" width="35" height="20" as="geometry" />
        </mxCell>
        <mxCell id="x0n5BMUEkLOeOddu-3SM-4" value="3" style="text;html=1;align=center;verticalAlign=middle;whiteSpace=wrap;rounded=0;fillColor=#f9f7ed;strokeColor=#36393d;" parent="1" vertex="1">
          <mxGeometry x="129.5" y="1190" width="35" height="20" as="geometry" />
        </mxCell>
        <mxCell id="x0n5BMUEkLOeOddu-3SM-5" value="2" style="text;html=1;align=center;verticalAlign=middle;whiteSpace=wrap;rounded=0;fillColor=#f9f7ed;strokeColor=#36393d;" parent="1" vertex="1">
          <mxGeometry x="277.5" y="1110" width="35" height="20" as="geometry" />
        </mxCell>
        <mxCell id="x0n5BMUEkLOeOddu-3SM-6" value="8" style="text;html=1;align=center;verticalAlign=middle;whiteSpace=wrap;rounded=0;fillColor=#f9f7ed;strokeColor=#36393d;" parent="1" vertex="1">
          <mxGeometry x="140" y="2240" width="35" height="20" as="geometry" />
        </mxCell>
        <mxCell id="x0n5BMUEkLOeOddu-3SM-7" value="7" style="text;html=1;align=center;verticalAlign=middle;whiteSpace=wrap;rounded=0;fillColor=#f9f7ed;strokeColor=#36393d;" parent="1" vertex="1">
          <mxGeometry x="129.5" y="2120" width="35" height="20" as="geometry" />
        </mxCell>
        <mxCell id="x0n5BMUEkLOeOddu-3SM-8" value="6" style="text;html=1;align=center;verticalAlign=middle;whiteSpace=wrap;rounded=0;fillColor=#f9f7ed;strokeColor=#36393d;" parent="1" vertex="1">
          <mxGeometry x="283" y="2040" width="35" height="20" as="geometry" />
        </mxCell>
        <mxCell id="x0n5BMUEkLOeOddu-3SM-9" value="10" style="text;html=1;align=center;verticalAlign=middle;whiteSpace=wrap;rounded=0;fillColor=#f9f7ed;strokeColor=#36393d;" parent="1" vertex="1">
          <mxGeometry x="290" y="2550" width="35" height="20" as="geometry" />
        </mxCell>
        <mxCell id="x0n5BMUEkLOeOddu-3SM-10" value="9" style="text;html=1;align=center;verticalAlign=middle;whiteSpace=wrap;rounded=0;fillColor=#f9f7ed;strokeColor=#36393d;" parent="1" vertex="1">
          <mxGeometry x="129.5" y="2360" width="35" height="20" as="geometry" />
        </mxCell>
        <mxCell id="x0n5BMUEkLOeOddu-3SM-11" value="11" style="text;html=1;align=center;verticalAlign=middle;whiteSpace=wrap;rounded=0;fillColor=#f9f7ed;strokeColor=#36393d;" parent="1" vertex="1">
          <mxGeometry x="139.5" y="2630" width="35" height="20" as="geometry" />
        </mxCell>
        <mxCell id="x0n5BMUEkLOeOddu-3SM-12" value="12" style="text;html=1;align=center;verticalAlign=middle;whiteSpace=wrap;rounded=0;fillColor=#f9f7ed;strokeColor=#36393d;" parent="1" vertex="1">
          <mxGeometry x="415.5" y="2630" width="35" height="20" as="geometry" />
        </mxCell>
        <mxCell id="x0n5BMUEkLOeOddu-3SM-13" value="16" style="text;html=1;align=center;verticalAlign=middle;whiteSpace=wrap;rounded=0;fillColor=#f9f7ed;strokeColor=#36393d;" parent="1" vertex="1">
          <mxGeometry x="147.5" y="3360" width="35" height="20" as="geometry" />
        </mxCell>
        <mxCell id="x0n5BMUEkLOeOddu-3SM-14" value="15" style="text;html=1;align=center;verticalAlign=middle;whiteSpace=wrap;rounded=0;fillColor=#f9f7ed;strokeColor=#36393d;" parent="1" vertex="1">
          <mxGeometry x="296" y="3280" width="35" height="20" as="geometry" />
        </mxCell>
        <mxCell id="x0n5BMUEkLOeOddu-3SM-15" value="14" style="text;html=1;align=center;verticalAlign=middle;whiteSpace=wrap;rounded=0;fillColor=#f9f7ed;strokeColor=#36393d;" parent="1" vertex="1">
          <mxGeometry x="285" y="3140" width="35" height="20" as="geometry" />
        </mxCell>
        <mxCell id="x0n5BMUEkLOeOddu-3SM-16" value="13" style="text;html=1;align=center;verticalAlign=middle;whiteSpace=wrap;rounded=0;fillColor=#f9f7ed;strokeColor=#36393d;" parent="1" vertex="1">
          <mxGeometry x="270" y="3020" width="35" height="20" as="geometry" />
        </mxCell>
        <mxCell id="x0n5BMUEkLOeOddu-3SM-17" value="20" style="text;html=1;align=center;verticalAlign=middle;whiteSpace=wrap;rounded=0;fillColor=#f9f7ed;strokeColor=#36393d;" parent="1" vertex="1">
          <mxGeometry x="315.5" y="4160" width="35" height="20" as="geometry" />
        </mxCell>
        <mxCell id="x0n5BMUEkLOeOddu-3SM-18" value="19" style="text;html=1;align=center;verticalAlign=middle;whiteSpace=wrap;rounded=0;fillColor=#f9f7ed;strokeColor=#36393d;" parent="1" vertex="1">
          <mxGeometry x="312.5" y="4020" width="35" height="20" as="geometry" />
        </mxCell>
        <mxCell id="x0n5BMUEkLOeOddu-3SM-19" value="18" style="text;html=1;align=center;verticalAlign=middle;whiteSpace=wrap;rounded=0;fillColor=#f9f7ed;strokeColor=#36393d;" parent="1" vertex="1">
          <mxGeometry x="440" y="3360" width="35" height="20" as="geometry" />
        </mxCell>
        <mxCell id="x0n5BMUEkLOeOddu-3SM-20" value="17" style="text;html=1;align=center;verticalAlign=middle;whiteSpace=wrap;rounded=0;fillColor=#f9f7ed;strokeColor=#36393d;" parent="1" vertex="1">
          <mxGeometry x="147.5" y="3480" width="35" height="20" as="geometry" />
        </mxCell>
        <mxCell id="x0n5BMUEkLOeOddu-3SM-21" value="21" style="text;html=1;align=center;verticalAlign=middle;whiteSpace=wrap;rounded=0;fillColor=#f9f7ed;strokeColor=#36393d;" parent="1" vertex="1">
          <mxGeometry x="170" y="4260" width="35" height="20" as="geometry" />
        </mxCell>
        <mxCell id="x0n5BMUEkLOeOddu-3SM-23" value="23" style="text;html=1;align=center;verticalAlign=middle;whiteSpace=wrap;rounded=0;fillColor=#f9f7ed;strokeColor=#36393d;" parent="1" vertex="1">
          <mxGeometry x="450" y="4240" width="35" height="20" as="geometry" />
        </mxCell>
        <mxCell id="x0n5BMUEkLOeOddu-3SM-24" value="22" style="text;html=1;align=center;verticalAlign=middle;whiteSpace=wrap;rounded=0;fillColor=#f9f7ed;strokeColor=#36393d;" parent="1" vertex="1">
          <mxGeometry x="170" y="4360" width="35" height="20" as="geometry" />
        </mxCell>
        <mxCell id="x0n5BMUEkLOeOddu-3SM-26" value="начало&lt;div&gt;registrChecking&lt;/div&gt;" style="strokeWidth=2;html=1;shape=mxgraph.flowchart.terminator;whiteSpace=wrap;" parent="1" vertex="1">
          <mxGeometry x="296" y="5090" width="154" height="50" as="geometry" />
        </mxCell>
        <mxCell id="x0n5BMUEkLOeOddu-3SM-27" value="" style="edgeStyle=orthogonalEdgeStyle;rounded=0;orthogonalLoop=1;jettySize=auto;html=1;" parent="1" edge="1">
          <mxGeometry relative="1" as="geometry">
            <mxPoint x="370" y="5140" as="sourcePoint" />
            <mxPoint x="370.5" y="5160" as="targetPoint" />
          </mxGeometry>
        </mxCell>
        <mxCell id="x0n5BMUEkLOeOddu-3SM-28" value="&lt;div&gt;&lt;span style=&quot;font-size: 12px;&quot;&gt;int n = 0;&lt;/span&gt;&lt;/div&gt;&lt;div&gt;&lt;span style=&quot;font-size: 12px;&quot;&gt;bool reg = false;&lt;/span&gt;&lt;/div&gt;&lt;div&gt;&lt;span style=&quot;font-size: 12px;&quot;&gt;int pos = 0;&lt;/span&gt;&lt;/div&gt;" style="rounded=1;whiteSpace=wrap;html=1;absoluteArcSize=1;arcSize=14;strokeWidth=2;" parent="1" vertex="1">
          <mxGeometry x="295.5" y="5161" width="155" height="100" as="geometry" />
        </mxCell>
        <mxCell id="x0n5BMUEkLOeOddu-3SM-29" value="" style="edgeStyle=orthogonalEdgeStyle;rounded=0;orthogonalLoop=1;jettySize=auto;html=1;" parent="1" edge="1">
          <mxGeometry relative="1" as="geometry">
            <mxPoint x="370" y="5261" as="sourcePoint" />
            <mxPoint x="370.5" y="5281" as="targetPoint" />
          </mxGeometry>
        </mxCell>
        <mxCell id="x0n5BMUEkLOeOddu-3SM-30" value="&lt;span style=&quot;font-size: 12px;&quot;&gt;reading[pos] = toupper(reading[pos]);&lt;/span&gt;" style="shape=process;whiteSpace=wrap;html=1;backgroundOutline=1;" parent="1" vertex="1">
          <mxGeometry x="295" y="5280" width="155" height="100" as="geometry" />
        </mxCell>
        <mxCell id="x0n5BMUEkLOeOddu-3SM-31" value="" style="edgeStyle=orthogonalEdgeStyle;rounded=0;orthogonalLoop=1;jettySize=auto;html=1;" parent="1" edge="1">
          <mxGeometry relative="1" as="geometry">
            <mxPoint x="370" y="5380" as="sourcePoint" />
            <mxPoint x="370.5" y="5400" as="targetPoint" />
          </mxGeometry>
        </mxCell>
        <mxCell id="x0n5BMUEkLOeOddu-3SM-32" value="&lt;font style=&quot;font-size: 10px;&quot;&gt;pos &amp;lt;= reading.size() &amp;amp;&amp;amp; n &amp;lt; 10&lt;/font&gt;" style="rhombus;whiteSpace=wrap;html=1;" parent="1" vertex="1">
          <mxGeometry x="294" y="5400" width="156" height="100" as="geometry" />
        </mxCell>
        <mxCell id="x0n5BMUEkLOeOddu-3SM-33" value="" style="edgeStyle=orthogonalEdgeStyle;rounded=0;orthogonalLoop=1;jettySize=auto;html=1;" parent="1" edge="1">
          <mxGeometry relative="1" as="geometry">
            <mxPoint x="372" y="5500" as="sourcePoint" />
            <mxPoint x="372.5" y="5520" as="targetPoint" />
          </mxGeometry>
        </mxCell>
        <mxCell id="x0n5BMUEkLOeOddu-3SM-34" value="&lt;span style=&quot;font-size: 10px;&quot;&gt;[3]&lt;/span&gt;" style="rhombus;whiteSpace=wrap;html=1;" parent="1" vertex="1">
          <mxGeometry x="318" y="6160" width="156" height="100" as="geometry" />
        </mxCell>
        <mxCell id="x0n5BMUEkLOeOddu-3SM-35" value="&lt;span style=&quot;font-size: 12px;&quot;&gt;pos = pos + 1;&lt;/span&gt;" style="rounded=1;whiteSpace=wrap;html=1;absoluteArcSize=1;arcSize=14;strokeWidth=2;" parent="1" vertex="1">
          <mxGeometry x="300.5" y="5520" width="155" height="100" as="geometry" />
        </mxCell>
        <mxCell id="x0n5BMUEkLOeOddu-3SM-36" value="" style="edgeStyle=orthogonalEdgeStyle;rounded=0;orthogonalLoop=1;jettySize=auto;html=1;" parent="1" edge="1">
          <mxGeometry relative="1" as="geometry">
            <mxPoint x="371.5" y="5620" as="sourcePoint" />
            <mxPoint x="372" y="5640" as="targetPoint" />
          </mxGeometry>
        </mxCell>
        <mxCell id="x0n5BMUEkLOeOddu-3SM-38" value="" style="endArrow=none;html=1;rounded=0;" parent="1" edge="1">
          <mxGeometry width="50" height="50" relative="1" as="geometry">
            <mxPoint x="200" y="5540" as="sourcePoint" />
            <mxPoint x="200" y="5450" as="targetPoint" />
          </mxGeometry>
        </mxCell>
        <mxCell id="x0n5BMUEkLOeOddu-3SM-39" value="" style="endArrow=classic;html=1;rounded=0;" parent="1" edge="1">
          <mxGeometry width="50" height="50" relative="1" as="geometry">
            <mxPoint x="200" y="5450" as="sourcePoint" />
            <mxPoint x="290" y="5449.5" as="targetPoint" />
          </mxGeometry>
        </mxCell>
        <mxCell id="x0n5BMUEkLOeOddu-3SM-40" value="1" style="ellipse;whiteSpace=wrap;html=1;aspect=fixed;" parent="1" vertex="1">
          <mxGeometry x="174.5" y="5540" width="50" height="50" as="geometry" />
        </mxCell>
        <mxCell id="x0n5BMUEkLOeOddu-3SM-41" value="" style="endArrow=none;dashed=1;html=1;rounded=0;" parent="1" edge="1">
          <mxGeometry width="50" height="50" relative="1" as="geometry">
            <mxPoint x="154.5" y="5564.5" as="sourcePoint" />
            <mxPoint x="174.5" y="5564.5" as="targetPoint" />
          </mxGeometry>
        </mxCell>
        <mxCell id="x0n5BMUEkLOeOddu-3SM-42" value="" style="strokeWidth=2;html=1;shape=mxgraph.flowchart.annotation_2;align=left;labelPosition=right;pointerEvents=1;rotation=-180;" parent="1" vertex="1">
          <mxGeometry x="122" y="5540" width="30" height="50" as="geometry" />
        </mxCell>
        <mxCell id="x0n5BMUEkLOeOddu-3SM-43" value="из бл5 стр12 в бл3 стр11" style="text;html=1;strokeColor=none;fillColor=none;align=center;verticalAlign=middle;whiteSpace=wrap;rounded=0;" parent="1" vertex="1">
          <mxGeometry x="69.5" y="5540" width="60" height="45" as="geometry" />
        </mxCell>
        <mxCell id="x0n5BMUEkLOeOddu-3SM-44" value="" style="endArrow=none;html=1;rounded=0;" parent="1" edge="1">
          <mxGeometry width="50" height="50" relative="1" as="geometry">
            <mxPoint x="450.5" y="5449.5" as="sourcePoint" />
            <mxPoint x="520.5" y="5449.5" as="targetPoint" />
          </mxGeometry>
        </mxCell>
        <mxCell id="x0n5BMUEkLOeOddu-3SM-45" value="" style="endArrow=classic;html=1;rounded=0;" parent="1" edge="1">
          <mxGeometry width="50" height="50" relative="1" as="geometry">
            <mxPoint x="520" y="5450" as="sourcePoint" />
            <mxPoint x="520" y="5500" as="targetPoint" />
          </mxGeometry>
        </mxCell>
        <mxCell id="x0n5BMUEkLOeOddu-3SM-46" value="2" style="ellipse;whiteSpace=wrap;html=1;aspect=fixed;" parent="1" vertex="1">
          <mxGeometry x="500" y="5500" width="50" height="50" as="geometry" />
        </mxCell>
        <mxCell id="x0n5BMUEkLOeOddu-3SM-47" value="" style="endArrow=none;dashed=1;html=1;rounded=0;" parent="1" edge="1">
          <mxGeometry width="50" height="50" relative="1" as="geometry">
            <mxPoint x="550" y="5527" as="sourcePoint" />
            <mxPoint x="570" y="5527" as="targetPoint" />
          </mxGeometry>
        </mxCell>
        <mxCell id="x0n5BMUEkLOeOddu-3SM-48" value="из бл3 стр11 в бл10 стр13" style="text;html=1;strokeColor=none;fillColor=none;align=center;verticalAlign=middle;whiteSpace=wrap;rounded=0;" parent="1" vertex="1">
          <mxGeometry x="595" y="5502.5" width="60" height="45" as="geometry" />
        </mxCell>
        <mxCell id="x0n5BMUEkLOeOddu-3SM-49" value="" style="strokeWidth=2;html=1;shape=mxgraph.flowchart.annotation_2;align=left;labelPosition=right;pointerEvents=1;rotation=0;" parent="1" vertex="1">
          <mxGeometry x="574.5" y="5502.5" width="30" height="50" as="geometry" />
        </mxCell>
        <mxCell id="x0n5BMUEkLOeOddu-3SM-51" value="3" style="ellipse;whiteSpace=wrap;html=1;aspect=fixed;" parent="1" vertex="1">
          <mxGeometry x="348" y="5640" width="50" height="50" as="geometry" />
        </mxCell>
        <mxCell id="x0n5BMUEkLOeOddu-3SM-52" value="" style="endArrow=none;dashed=1;html=1;rounded=0;" parent="1" edge="1">
          <mxGeometry width="50" height="50" relative="1" as="geometry">
            <mxPoint x="398" y="5667" as="sourcePoint" />
            <mxPoint x="418" y="5667" as="targetPoint" />
          </mxGeometry>
        </mxCell>
        <mxCell id="x0n5BMUEkLOeOddu-3SM-53" value="из бл4 стр11 в бл5 стр12" style="text;html=1;strokeColor=none;fillColor=none;align=center;verticalAlign=middle;whiteSpace=wrap;rounded=0;" parent="1" vertex="1">
          <mxGeometry x="443" y="5642.5" width="60" height="45" as="geometry" />
        </mxCell>
        <mxCell id="x0n5BMUEkLOeOddu-3SM-54" value="" style="strokeWidth=2;html=1;shape=mxgraph.flowchart.annotation_2;align=left;labelPosition=right;pointerEvents=1;rotation=0;" parent="1" vertex="1">
          <mxGeometry x="422.5" y="5642.5" width="30" height="50" as="geometry" />
        </mxCell>
        <mxCell id="x0n5BMUEkLOeOddu-3SM-55" value="3" style="ellipse;whiteSpace=wrap;html=1;aspect=fixed;" parent="1" vertex="1">
          <mxGeometry x="370" y="6090" width="50" height="50" as="geometry" />
        </mxCell>
        <mxCell id="x0n5BMUEkLOeOddu-3SM-56" value="" style="endArrow=none;dashed=1;html=1;rounded=0;" parent="1" edge="1">
          <mxGeometry width="50" height="50" relative="1" as="geometry">
            <mxPoint x="420" y="6117" as="sourcePoint" />
            <mxPoint x="440" y="6117" as="targetPoint" />
          </mxGeometry>
        </mxCell>
        <mxCell id="x0n5BMUEkLOeOddu-3SM-58" value="" style="strokeWidth=2;html=1;shape=mxgraph.flowchart.annotation_2;align=left;labelPosition=right;pointerEvents=1;rotation=0;" parent="1" vertex="1">
          <mxGeometry x="444.5" y="6092.5" width="30" height="50" as="geometry" />
        </mxCell>
        <mxCell id="x0n5BMUEkLOeOddu-3SM-59" value="" style="edgeStyle=orthogonalEdgeStyle;rounded=0;orthogonalLoop=1;jettySize=auto;html=1;" parent="1" edge="1">
          <mxGeometry relative="1" as="geometry">
            <mxPoint x="394.5" y="6140" as="sourcePoint" />
            <mxPoint x="395" y="6160" as="targetPoint" />
          </mxGeometry>
        </mxCell>
        <mxCell id="x0n5BMUEkLOeOddu-3SM-60" value="" style="endArrow=none;html=1;rounded=0;" parent="1" edge="1">
          <mxGeometry width="50" height="50" relative="1" as="geometry">
            <mxPoint x="250" y="6210" as="sourcePoint" />
            <mxPoint x="318.0006781186547" y="6209.5" as="targetPoint" />
          </mxGeometry>
        </mxCell>
        <mxCell id="x0n5BMUEkLOeOddu-3SM-62" value="" style="endArrow=none;html=1;rounded=0;" parent="1" edge="1">
          <mxGeometry width="50" height="50" relative="1" as="geometry">
            <mxPoint x="475" y="6210" as="sourcePoint" />
            <mxPoint x="543.0006781186547" y="6209.5" as="targetPoint" />
          </mxGeometry>
        </mxCell>
        <mxCell id="x0n5BMUEkLOeOddu-3SM-63" value="" style="endArrow=classic;html=1;rounded=0;" parent="1" edge="1">
          <mxGeometry width="50" height="50" relative="1" as="geometry">
            <mxPoint x="252.5" y="6210" as="sourcePoint" />
            <mxPoint x="252.5" y="6260" as="targetPoint" />
          </mxGeometry>
        </mxCell>
        <mxCell id="x0n5BMUEkLOeOddu-3SM-64" value="&lt;span style=&quot;font-size: 12px;&quot;&gt;reading[pos + 2] = toupper(reading[pos + 2]);&lt;/span&gt;" style="shape=process;whiteSpace=wrap;html=1;backgroundOutline=1;" parent="1" vertex="1">
          <mxGeometry x="174.5" y="6260" width="155" height="100" as="geometry" />
        </mxCell>
        <mxCell id="x0n5BMUEkLOeOddu-3SM-65" value="&lt;span style=&quot;font-size: 12px;&quot;&gt;registr[n] = pos + 2;&lt;/span&gt;" style="rounded=1;whiteSpace=wrap;html=1;absoluteArcSize=1;arcSize=14;strokeWidth=2;" parent="1" vertex="1">
          <mxGeometry x="177" y="6380" width="155" height="100" as="geometry" />
        </mxCell>
        <mxCell id="x0n5BMUEkLOeOddu-3SM-66" value="" style="edgeStyle=orthogonalEdgeStyle;rounded=0;orthogonalLoop=1;jettySize=auto;html=1;" parent="1" edge="1">
          <mxGeometry relative="1" as="geometry">
            <mxPoint x="251.5" y="6360" as="sourcePoint" />
            <mxPoint x="252" y="6380" as="targetPoint" />
          </mxGeometry>
        </mxCell>
        <mxCell id="x0n5BMUEkLOeOddu-3SM-67" value="" style="edgeStyle=orthogonalEdgeStyle;rounded=0;orthogonalLoop=1;jettySize=auto;html=1;" parent="1" edge="1">
          <mxGeometry relative="1" as="geometry">
            <mxPoint x="251.5" y="6480" as="sourcePoint" />
            <mxPoint x="252" y="6500" as="targetPoint" />
          </mxGeometry>
        </mxCell>
        <mxCell id="x0n5BMUEkLOeOddu-3SM-68" value="&lt;span style=&quot;font-size: 12px;&quot;&gt;reg = true;&lt;/span&gt;" style="rounded=1;whiteSpace=wrap;html=1;absoluteArcSize=1;arcSize=14;strokeWidth=2;" parent="1" vertex="1">
          <mxGeometry x="174.5" y="6500" width="155" height="100" as="geometry" />
        </mxCell>
        <mxCell id="x0n5BMUEkLOeOddu-3SM-69" value="" style="edgeStyle=orthogonalEdgeStyle;rounded=0;orthogonalLoop=1;jettySize=auto;html=1;" parent="1" edge="1">
          <mxGeometry relative="1" as="geometry">
            <mxPoint x="251.5" y="6600" as="sourcePoint" />
            <mxPoint x="252" y="6620" as="targetPoint" />
          </mxGeometry>
        </mxCell>
        <mxCell id="x0n5BMUEkLOeOddu-3SM-70" value="&lt;span style=&quot;font-size: 12px;&quot;&gt;reg = true;&lt;/span&gt;" style="rounded=1;whiteSpace=wrap;html=1;absoluteArcSize=1;arcSize=14;strokeWidth=2;" parent="1" vertex="1">
          <mxGeometry x="176" y="6620" width="155" height="100" as="geometry" />
        </mxCell>
        <mxCell id="x0n5BMUEkLOeOddu-3SM-71" value="" style="endArrow=none;html=1;rounded=0;" parent="1" edge="1">
          <mxGeometry width="50" height="50" relative="1" as="geometry">
            <mxPoint x="251.5" y="6720" as="sourcePoint" />
            <mxPoint x="251.5" y="6740" as="targetPoint" />
          </mxGeometry>
        </mxCell>
        <mxCell id="x0n5BMUEkLOeOddu-3SM-72" value="" style="endArrow=none;html=1;rounded=0;" parent="1" edge="1">
          <mxGeometry width="50" height="50" relative="1" as="geometry">
            <mxPoint x="540" y="6740" as="sourcePoint" />
            <mxPoint x="540" y="6210" as="targetPoint" />
          </mxGeometry>
        </mxCell>
        <mxCell id="x0n5BMUEkLOeOddu-3SM-73" value="" style="endArrow=none;html=1;rounded=0;" parent="1" edge="1">
          <mxGeometry width="50" height="50" relative="1" as="geometry">
            <mxPoint x="252.5" y="6740" as="sourcePoint" />
            <mxPoint x="540" y="6740" as="targetPoint" />
          </mxGeometry>
        </mxCell>
        <mxCell id="x0n5BMUEkLOeOddu-3SM-74" value="" style="endArrow=none;html=1;rounded=0;" parent="1" edge="1">
          <mxGeometry width="50" height="50" relative="1" as="geometry">
            <mxPoint x="382.5" y="6760" as="sourcePoint" />
            <mxPoint x="382.5" y="6740" as="targetPoint" />
          </mxGeometry>
        </mxCell>
        <mxCell id="x0n5BMUEkLOeOddu-3SM-75" value="" style="endArrow=none;html=1;rounded=0;" parent="1" edge="1">
          <mxGeometry width="50" height="50" relative="1" as="geometry">
            <mxPoint x="120" y="6760" as="sourcePoint" />
            <mxPoint x="381" y="6760" as="targetPoint" />
          </mxGeometry>
        </mxCell>
        <mxCell id="x0n5BMUEkLOeOddu-3SM-76" value="" style="endArrow=none;html=1;rounded=0;" parent="1" edge="1">
          <mxGeometry width="50" height="50" relative="1" as="geometry">
            <mxPoint x="119.5" y="6760" as="sourcePoint" />
            <mxPoint x="120" y="6400" as="targetPoint" />
          </mxGeometry>
        </mxCell>
        <mxCell id="x0n5BMUEkLOeOddu-3SM-77" value="1" style="ellipse;whiteSpace=wrap;html=1;aspect=fixed;" parent="1" vertex="1">
          <mxGeometry x="97.5" y="6330" width="50" height="50" as="geometry" />
        </mxCell>
        <mxCell id="x0n5BMUEkLOeOddu-3SM-78" value="" style="endArrow=none;dashed=1;html=1;rounded=0;" parent="1" edge="1">
          <mxGeometry width="50" height="50" relative="1" as="geometry">
            <mxPoint x="77.5" y="6354.5" as="sourcePoint" />
            <mxPoint x="97.5" y="6354.5" as="targetPoint" />
          </mxGeometry>
        </mxCell>
        <mxCell id="x0n5BMUEkLOeOddu-3SM-79" value="" style="strokeWidth=2;html=1;shape=mxgraph.flowchart.annotation_2;align=left;labelPosition=right;pointerEvents=1;rotation=-180;" parent="1" vertex="1">
          <mxGeometry x="45" y="6330" width="30" height="50" as="geometry" />
        </mxCell>
        <mxCell id="x0n5BMUEkLOeOddu-3SM-81" value="" style="endArrow=classic;html=1;rounded=0;" parent="1" edge="1">
          <mxGeometry width="50" height="50" relative="1" as="geometry">
            <mxPoint x="121" y="6400" as="sourcePoint" />
            <mxPoint x="121" y="6380" as="targetPoint" />
          </mxGeometry>
        </mxCell>
        <mxCell id="x0n5BMUEkLOeOddu-3SM-82" value="2" style="ellipse;whiteSpace=wrap;html=1;aspect=fixed;" parent="1" vertex="1">
          <mxGeometry x="610" y="6190" width="50" height="50" as="geometry" />
        </mxCell>
        <mxCell id="x0n5BMUEkLOeOddu-3SM-83" value="" style="endArrow=none;dashed=1;html=1;rounded=0;" parent="1" edge="1">
          <mxGeometry width="50" height="50" relative="1" as="geometry">
            <mxPoint x="660" y="6217" as="sourcePoint" />
            <mxPoint x="680" y="6217" as="targetPoint" />
          </mxGeometry>
        </mxCell>
        <mxCell id="x0n5BMUEkLOeOddu-3SM-85" value="" style="strokeWidth=2;html=1;shape=mxgraph.flowchart.annotation_2;align=left;labelPosition=right;pointerEvents=1;rotation=0;" parent="1" vertex="1">
          <mxGeometry x="684.5" y="6192.5" width="30" height="50" as="geometry" />
        </mxCell>
        <mxCell id="x0n5BMUEkLOeOddu-3SM-86" value="" style="endArrow=none;html=1;rounded=0;" parent="1" edge="1">
          <mxGeometry width="50" height="50" relative="1" as="geometry">
            <mxPoint x="634.5" y="6772.5" as="sourcePoint" />
            <mxPoint x="634.5" y="6242.5" as="targetPoint" />
          </mxGeometry>
        </mxCell>
        <mxCell id="x0n5BMUEkLOeOddu-3SM-87" value="" style="endArrow=none;html=1;rounded=0;" parent="1" edge="1">
          <mxGeometry width="50" height="50" relative="1" as="geometry">
            <mxPoint x="380" y="6770" as="sourcePoint" />
            <mxPoint x="636.5" y="6770" as="targetPoint" />
          </mxGeometry>
        </mxCell>
        <mxCell id="x0n5BMUEkLOeOddu-3SM-88" value="" style="edgeStyle=orthogonalEdgeStyle;rounded=0;orthogonalLoop=1;jettySize=auto;html=1;" parent="1" edge="1">
          <mxGeometry relative="1" as="geometry">
            <mxPoint x="380" y="6770" as="sourcePoint" />
            <mxPoint x="380.5" y="6790" as="targetPoint" />
          </mxGeometry>
        </mxCell>
        <mxCell id="x0n5BMUEkLOeOddu-3SM-89" value="4" style="ellipse;whiteSpace=wrap;html=1;aspect=fixed;" parent="1" vertex="1">
          <mxGeometry x="356.5" y="6790" width="50" height="50" as="geometry" />
        </mxCell>
        <mxCell id="x0n5BMUEkLOeOddu-3SM-93" value="" style="endArrow=none;dashed=1;html=1;rounded=0;" parent="1" edge="1">
          <mxGeometry width="50" height="50" relative="1" as="geometry">
            <mxPoint x="408.5" y="6814.5" as="sourcePoint" />
            <mxPoint x="428.5" y="6814.5" as="targetPoint" />
          </mxGeometry>
        </mxCell>
        <mxCell id="x0n5BMUEkLOeOddu-3SM-95" value="" style="strokeWidth=2;html=1;shape=mxgraph.flowchart.annotation_2;align=left;labelPosition=right;pointerEvents=1;rotation=0;" parent="1" vertex="1">
          <mxGeometry x="433" y="6790" width="30" height="50" as="geometry" />
        </mxCell>
        <mxCell id="x0n5BMUEkLOeOddu-3SM-96" value="4" style="ellipse;whiteSpace=wrap;html=1;aspect=fixed;" parent="1" vertex="1">
          <mxGeometry x="358" y="7090" width="50" height="50" as="geometry" />
        </mxCell>
        <mxCell id="x0n5BMUEkLOeOddu-3SM-97" value="" style="endArrow=none;dashed=1;html=1;rounded=0;" parent="1" edge="1">
          <mxGeometry width="50" height="50" relative="1" as="geometry">
            <mxPoint x="410" y="7114.5" as="sourcePoint" />
            <mxPoint x="430" y="7114.5" as="targetPoint" />
          </mxGeometry>
        </mxCell>
        <mxCell id="x0n5BMUEkLOeOddu-3SM-99" value="" style="strokeWidth=2;html=1;shape=mxgraph.flowchart.annotation_2;align=left;labelPosition=right;pointerEvents=1;rotation=0;" parent="1" vertex="1">
          <mxGeometry x="434.5" y="7090" width="30" height="50" as="geometry" />
        </mxCell>
        <mxCell id="x0n5BMUEkLOeOddu-3SM-100" value="" style="edgeStyle=orthogonalEdgeStyle;rounded=0;orthogonalLoop=1;jettySize=auto;html=1;" parent="1" edge="1">
          <mxGeometry relative="1" as="geometry">
            <mxPoint x="382.5" y="7140" as="sourcePoint" />
            <mxPoint x="383" y="7160" as="targetPoint" />
          </mxGeometry>
        </mxCell>
        <mxCell id="x0n5BMUEkLOeOddu-3SM-101" value="&lt;span style=&quot;font-size: 12px;&quot;&gt;reg&lt;/span&gt;" style="rhombus;whiteSpace=wrap;html=1;" parent="1" vertex="1">
          <mxGeometry x="305" y="7160" width="156" height="100" as="geometry" />
        </mxCell>
        <mxCell id="x0n5BMUEkLOeOddu-3SM-102" value="" style="endArrow=none;html=1;rounded=0;" parent="1" edge="1">
          <mxGeometry width="50" height="50" relative="1" as="geometry">
            <mxPoint x="461" y="7210" as="sourcePoint" />
            <mxPoint x="529.0006781186547" y="7209.5" as="targetPoint" />
          </mxGeometry>
        </mxCell>
        <mxCell id="x0n5BMUEkLOeOddu-3SM-103" value="" style="endArrow=none;html=1;rounded=0;" parent="1" edge="1">
          <mxGeometry width="50" height="50" relative="1" as="geometry">
            <mxPoint x="237" y="7210" as="sourcePoint" />
            <mxPoint x="305.0006781186547" y="7209.5" as="targetPoint" />
          </mxGeometry>
        </mxCell>
        <mxCell id="x0n5BMUEkLOeOddu-3SM-104" value="" style="edgeStyle=orthogonalEdgeStyle;rounded=0;orthogonalLoop=1;jettySize=auto;html=1;" parent="1" edge="1">
          <mxGeometry relative="1" as="geometry">
            <mxPoint x="529" y="7210" as="sourcePoint" />
            <mxPoint x="529.5" y="7230" as="targetPoint" />
          </mxGeometry>
        </mxCell>
        <mxCell id="x0n5BMUEkLOeOddu-3SM-106" value="&lt;span style=&quot;font-size: 12px;&quot;&gt;Text input correctly&lt;/span&gt;" style="shape=parallelogram;perimeter=parallelogramPerimeter;whiteSpace=wrap;html=1;fixedSize=1;" parent="1" vertex="1">
          <mxGeometry x="453.5" y="7230" width="150" height="100" as="geometry" />
        </mxCell>
        <mxCell id="x0n5BMUEkLOeOddu-3SM-107" value="" style="edgeStyle=orthogonalEdgeStyle;rounded=0;orthogonalLoop=1;jettySize=auto;html=1;" parent="1" edge="1">
          <mxGeometry relative="1" as="geometry">
            <mxPoint x="239" y="7210" as="sourcePoint" />
            <mxPoint x="239.5" y="7230" as="targetPoint" />
          </mxGeometry>
        </mxCell>
        <mxCell id="x0n5BMUEkLOeOddu-3SM-108" value="&lt;span style=&quot;font-size: 12px;&quot;&gt;int i = 0; i &amp;lt; n; i++&lt;/span&gt;" style="shape=hexagon;perimeter=hexagonPerimeter2;whiteSpace=wrap;html=1;fixedSize=1;" parent="1" vertex="1">
          <mxGeometry x="156" y="7350" width="149" height="100" as="geometry" />
        </mxCell>
        <mxCell id="x0n5BMUEkLOeOddu-3SM-109" value="&lt;span style=&quot;font-size: 12px;&quot;&gt;Registr changed at positions:&lt;/span&gt;" style="shape=parallelogram;perimeter=parallelogramPerimeter;whiteSpace=wrap;html=1;fixedSize=1;" parent="1" vertex="1">
          <mxGeometry x="158" y="7230" width="150" height="100" as="geometry" />
        </mxCell>
        <mxCell id="x0n5BMUEkLOeOddu-3SM-110" value="" style="edgeStyle=orthogonalEdgeStyle;rounded=0;orthogonalLoop=1;jettySize=auto;html=1;" parent="1" edge="1">
          <mxGeometry relative="1" as="geometry">
            <mxPoint x="232.5" y="7330" as="sourcePoint" />
            <mxPoint x="233" y="7350" as="targetPoint" />
          </mxGeometry>
        </mxCell>
        <mxCell id="x0n5BMUEkLOeOddu-3SM-111" value="" style="endArrow=none;html=1;rounded=0;" parent="1" edge="1">
          <mxGeometry width="50" height="50" relative="1" as="geometry">
            <mxPoint x="303.5" y="7400" as="sourcePoint" />
            <mxPoint x="371.5006781186547" y="7399.5" as="targetPoint" />
          </mxGeometry>
        </mxCell>
        <mxCell id="x0n5BMUEkLOeOddu-3SM-112" value="" style="edgeStyle=orthogonalEdgeStyle;rounded=0;orthogonalLoop=1;jettySize=auto;html=1;" parent="1" edge="1">
          <mxGeometry relative="1" as="geometry">
            <mxPoint x="232.5" y="7450" as="sourcePoint" />
            <mxPoint x="233" y="7470" as="targetPoint" />
          </mxGeometry>
        </mxCell>
        <mxCell id="x0n5BMUEkLOeOddu-3SM-113" value="&lt;span style=&quot;font-size: 12px;&quot;&gt;registr[i]&lt;/span&gt;" style="shape=parallelogram;perimeter=parallelogramPerimeter;whiteSpace=wrap;html=1;fixedSize=1;" parent="1" vertex="1">
          <mxGeometry x="156" y="7470" width="150" height="100" as="geometry" />
        </mxCell>
        <mxCell id="x0n5BMUEkLOeOddu-3SM-114" value="" style="endArrow=none;html=1;rounded=0;" parent="1" edge="1">
          <mxGeometry width="50" height="50" relative="1" as="geometry">
            <mxPoint x="370" y="7600" as="sourcePoint" />
            <mxPoint x="369" y="7400" as="targetPoint" />
          </mxGeometry>
        </mxCell>
        <mxCell id="x0n5BMUEkLOeOddu-3SM-115" value="" style="endArrow=none;html=1;rounded=0;" parent="1" edge="1">
          <mxGeometry width="50" height="50" relative="1" as="geometry">
            <mxPoint x="240" y="7599" as="sourcePoint" />
            <mxPoint x="370" y="7599" as="targetPoint" />
          </mxGeometry>
        </mxCell>
        <mxCell id="x0n5BMUEkLOeOddu-3SM-116" value="" style="edgeStyle=orthogonalEdgeStyle;rounded=0;orthogonalLoop=1;jettySize=auto;html=1;" parent="1" edge="1">
          <mxGeometry relative="1" as="geometry">
            <mxPoint x="239" y="7599" as="sourcePoint" />
            <mxPoint x="239.5" y="7619" as="targetPoint" />
          </mxGeometry>
        </mxCell>
        <mxCell id="x0n5BMUEkLOeOddu-3SM-117" value="&lt;span style=&quot;font-size: 12px;&quot;&gt;cout &amp;lt;&amp;lt; endl;&lt;/span&gt;" style="shape=parallelogram;perimeter=parallelogramPerimeter;whiteSpace=wrap;html=1;fixedSize=1;" parent="1" vertex="1">
          <mxGeometry x="164.5" y="7620" width="150" height="100" as="geometry" />
        </mxCell>
        <mxCell id="x0n5BMUEkLOeOddu-3SM-118" value="" style="endArrow=none;html=1;rounded=0;" parent="1" edge="1">
          <mxGeometry width="50" height="50" relative="1" as="geometry">
            <mxPoint x="114.5" y="7519.5" as="sourcePoint" />
            <mxPoint x="164.5" y="7519.5" as="targetPoint" />
          </mxGeometry>
        </mxCell>
        <mxCell id="x0n5BMUEkLOeOddu-3SM-119" value="" style="endArrow=none;html=1;rounded=0;" parent="1" edge="1">
          <mxGeometry width="50" height="50" relative="1" as="geometry">
            <mxPoint x="115.5" y="7520" as="sourcePoint" />
            <mxPoint x="116" y="7400" as="targetPoint" />
          </mxGeometry>
        </mxCell>
        <mxCell id="x0n5BMUEkLOeOddu-3SM-120" value="" style="endArrow=classic;html=1;rounded=0;" parent="1" edge="1">
          <mxGeometry width="50" height="50" relative="1" as="geometry">
            <mxPoint x="116.5" y="7399.5" as="sourcePoint" />
            <mxPoint x="160" y="7400" as="targetPoint" />
          </mxGeometry>
        </mxCell>
        <mxCell id="x0n5BMUEkLOeOddu-3SM-121" value="&lt;span style=&quot;color: rgba(0, 0, 0, 0); font-family: monospace; font-size: 0px; text-align: start; background-color: rgb(251, 251, 251);&quot;&gt;%3CmxGraphModel%3E%3Croot%3E%3CmxCell%20id%3D%220%22%2F%3E%3CmxCell%20id%3D%221%22%20parent%3D%220%22%2F%3E%3CmxCell%20id%3D%222%22%20value%3D%22%22%20style%3D%22endArrow%3Dnone%3Bhtml%3D1%3Brounded%3D0%3B%22%20edge%3D%221%22%20parent%3D%221%22%3E%3CmxGeometry%20width%3D%2250%22%20height%3D%2250%22%20relative%3D%221%22%20as%3D%22geometry%22%3E%3CmxPoint%20x%3D%22239%22%20y%3D%227740%22%20as%3D%22sourcePoint%22%2F%3E%3CmxPoint%20x%3D%22239%22%20y%3D%227720%22%20as%3D%22targetPoint%22%2F%3E%3C%2FmxGeometry%3E%3C%2FmxCell%3E%3C%2Froot%3E%3C%2FmxGraphModel%3E&lt;/span&gt;" style="endArrow=none;html=1;rounded=0;" parent="1" edge="1">
          <mxGeometry width="50" height="50" relative="1" as="geometry">
            <mxPoint x="239" y="7740" as="sourcePoint" />
            <mxPoint x="239" y="7720" as="targetPoint" />
          </mxGeometry>
        </mxCell>
        <mxCell id="x0n5BMUEkLOeOddu-3SM-122" value="&lt;span style=&quot;color: rgba(0, 0, 0, 0); font-family: monospace; font-size: 0px; text-align: start; background-color: rgb(251, 251, 251);&quot;&gt;%3CmxGraphModel%3E%3Croot%3E%3CmxCell%20id%3D%220%22%2F%3E%3CmxCell%20id%3D%221%22%20parent%3D%220%22%2F%3E%3CmxCell%20id%3D%222%22%20value%3D%22%22%20style%3D%22endArrow%3Dnone%3Bhtml%3D1%3Brounded%3D0%3B%22%20edge%3D%221%22%20parent%3D%221%22%3E%3CmxGeometry%20width%3D%2250%22%20height%3D%2250%22%20relative%3D%221%22%20as%3D%22geometry%22%3E%3CmxPoint%20x%3D%22239%22%20y%3D%227740%22%20as%3D%22sourcePoint%22%2F%3E%3CmxPoint%20x%3D%22239%22%20y%3D%227720%22%20as%3D%22targetPoint%22%2F%3E%3C%2FmxGeometry%3E%3C%2FmxCell%3E%3C%2Froot%3E%3C%2FmxGraphModel%3E&lt;/span&gt;" style="endArrow=none;html=1;rounded=0;" parent="1" edge="1">
          <mxGeometry width="50" height="50" relative="1" as="geometry">
            <mxPoint x="520" y="7740" as="sourcePoint" />
            <mxPoint x="524" y="7330" as="targetPoint" />
          </mxGeometry>
        </mxCell>
        <mxCell id="x0n5BMUEkLOeOddu-3SM-123" value="" style="endArrow=none;html=1;rounded=0;" parent="1" edge="1">
          <mxGeometry width="50" height="50" relative="1" as="geometry">
            <mxPoint x="238" y="7740" as="sourcePoint" />
            <mxPoint x="520" y="7740" as="targetPoint" />
          </mxGeometry>
        </mxCell>
        <mxCell id="x0n5BMUEkLOeOddu-3SM-124" value="" style="edgeStyle=orthogonalEdgeStyle;rounded=0;orthogonalLoop=1;jettySize=auto;html=1;" parent="1" edge="1">
          <mxGeometry relative="1" as="geometry">
            <mxPoint x="377.5" y="7740" as="sourcePoint" />
            <mxPoint x="378" y="7760" as="targetPoint" />
          </mxGeometry>
        </mxCell>
        <mxCell id="x0n5BMUEkLOeOddu-3SM-125" value="&lt;div&gt;конец&lt;/div&gt;&lt;div&gt;registrChecking&lt;/div&gt;" style="strokeWidth=2;html=1;shape=mxgraph.flowchart.terminator;whiteSpace=wrap;" parent="1" vertex="1">
          <mxGeometry x="298.5" y="7760" width="154" height="50" as="geometry" />
        </mxCell>
        <mxCell id="x0n5BMUEkLOeOddu-3SM-126" value="1" style="text;html=1;align=center;verticalAlign=middle;whiteSpace=wrap;rounded=0;fillColor=#f9f7ed;strokeColor=#36393d;" parent="1" vertex="1">
          <mxGeometry x="308" y="5150" width="35" height="20" as="geometry" />
        </mxCell>
        <mxCell id="x0n5BMUEkLOeOddu-3SM-127" value="9" style="text;html=1;align=center;verticalAlign=middle;whiteSpace=wrap;rounded=0;fillColor=#f9f7ed;strokeColor=#36393d;" parent="1" vertex="1">
          <mxGeometry x="200.5" y="6610" width="35" height="20" as="geometry" />
        </mxCell>
        <mxCell id="x0n5BMUEkLOeOddu-3SM-128" value="8" style="text;html=1;align=center;verticalAlign=middle;whiteSpace=wrap;rounded=0;fillColor=#f9f7ed;strokeColor=#36393d;" parent="1" vertex="1">
          <mxGeometry x="200.5" y="6490" width="35" height="20" as="geometry" />
        </mxCell>
        <mxCell id="x0n5BMUEkLOeOddu-3SM-129" value="7" style="text;html=1;align=center;verticalAlign=middle;whiteSpace=wrap;rounded=0;fillColor=#f9f7ed;strokeColor=#36393d;" parent="1" vertex="1">
          <mxGeometry x="197.5" y="6375" width="35" height="20" as="geometry" />
        </mxCell>
        <mxCell id="x0n5BMUEkLOeOddu-3SM-130" value="6" style="text;html=1;align=center;verticalAlign=middle;whiteSpace=wrap;rounded=0;fillColor=#f9f7ed;strokeColor=#36393d;" parent="1" vertex="1">
          <mxGeometry x="200.5" y="6250" width="35" height="20" as="geometry" />
        </mxCell>
        <mxCell id="x0n5BMUEkLOeOddu-3SM-131" value="5" style="text;html=1;align=center;verticalAlign=middle;whiteSpace=wrap;rounded=0;fillColor=#f9f7ed;strokeColor=#36393d;" parent="1" vertex="1">
          <mxGeometry x="348" y="6170" width="35" height="20" as="geometry" />
        </mxCell>
        <mxCell id="x0n5BMUEkLOeOddu-3SM-132" value="4" style="text;html=1;align=center;verticalAlign=middle;whiteSpace=wrap;rounded=0;fillColor=#f9f7ed;strokeColor=#36393d;" parent="1" vertex="1">
          <mxGeometry x="318" y="5510" width="35" height="20" as="geometry" />
        </mxCell>
        <mxCell id="x0n5BMUEkLOeOddu-3SM-133" value="3" style="text;html=1;align=center;verticalAlign=middle;whiteSpace=wrap;rounded=0;fillColor=#f9f7ed;strokeColor=#36393d;" parent="1" vertex="1">
          <mxGeometry x="320" y="5410" width="35" height="20" as="geometry" />
        </mxCell>
        <mxCell id="x0n5BMUEkLOeOddu-3SM-134" value="2" style="text;html=1;align=center;verticalAlign=middle;whiteSpace=wrap;rounded=0;fillColor=#f9f7ed;strokeColor=#36393d;" parent="1" vertex="1">
          <mxGeometry x="320" y="5270" width="35" height="20" as="geometry" />
        </mxCell>
        <mxCell id="x0n5BMUEkLOeOddu-3SM-135" value="10" style="text;html=1;align=center;verticalAlign=middle;whiteSpace=wrap;rounded=0;fillColor=#f9f7ed;strokeColor=#36393d;" parent="1" vertex="1">
          <mxGeometry x="335" y="7170" width="35" height="20" as="geometry" />
        </mxCell>
        <mxCell id="x0n5BMUEkLOeOddu-3SM-136" value="13" style="text;html=1;align=center;verticalAlign=middle;whiteSpace=wrap;rounded=0;fillColor=#f9f7ed;strokeColor=#36393d;" parent="1" vertex="1">
          <mxGeometry x="182" y="7460" width="35" height="20" as="geometry" />
        </mxCell>
        <mxCell id="x0n5BMUEkLOeOddu-3SM-137" value="12" style="text;html=1;align=center;verticalAlign=middle;whiteSpace=wrap;rounded=0;fillColor=#f9f7ed;strokeColor=#36393d;" parent="1" vertex="1">
          <mxGeometry x="182.5" y="7340" width="35" height="20" as="geometry" />
        </mxCell>
        <mxCell id="x0n5BMUEkLOeOddu-3SM-138" value="11" style="text;html=1;align=center;verticalAlign=middle;whiteSpace=wrap;rounded=0;fillColor=#f9f7ed;strokeColor=#36393d;" parent="1" vertex="1">
          <mxGeometry x="182.5" y="7220" width="35" height="20" as="geometry" />
        </mxCell>
        <mxCell id="x0n5BMUEkLOeOddu-3SM-139" value="15" style="text;html=1;align=center;verticalAlign=middle;whiteSpace=wrap;rounded=0;fillColor=#f9f7ed;strokeColor=#36393d;" parent="1" vertex="1">
          <mxGeometry x="480" y="7220" width="35" height="20" as="geometry" />
        </mxCell>
        <mxCell id="x0n5BMUEkLOeOddu-3SM-140" value="14" style="text;html=1;align=center;verticalAlign=middle;whiteSpace=wrap;rounded=0;fillColor=#f9f7ed;strokeColor=#36393d;" parent="1" vertex="1">
          <mxGeometry x="189.5" y="7610" width="35" height="20" as="geometry" />
        </mxCell>
        <mxCell id="x0n5BMUEkLOeOddu-3SM-142" value="начало&lt;div&gt;mobilePhone&lt;/div&gt;" style="strokeWidth=2;html=1;shape=mxgraph.flowchart.terminator;whiteSpace=wrap;" parent="1" vertex="1">
          <mxGeometry x="284" y="8183" width="154" height="50" as="geometry" />
        </mxCell>
        <mxCell id="x0n5BMUEkLOeOddu-3SM-143" value="" style="edgeStyle=orthogonalEdgeStyle;rounded=0;orthogonalLoop=1;jettySize=auto;html=1;" parent="1" edge="1">
          <mxGeometry relative="1" as="geometry">
            <mxPoint x="357" y="8233" as="sourcePoint" />
            <mxPoint x="357.5" y="8253" as="targetPoint" />
          </mxGeometry>
        </mxCell>
        <mxCell id="x0n5BMUEkLOeOddu-3SM-144" value="&lt;span style=&quot;font-size: 12px;&quot;&gt;string mobile;&lt;/span&gt;" style="rounded=1;whiteSpace=wrap;html=1;absoluteArcSize=1;arcSize=14;strokeWidth=2;" parent="1" vertex="1">
          <mxGeometry x="284" y="8250" width="155" height="100" as="geometry" />
        </mxCell>
        <mxCell id="x0n5BMUEkLOeOddu-3SM-145" value="" style="edgeStyle=orthogonalEdgeStyle;rounded=0;orthogonalLoop=1;jettySize=auto;html=1;" parent="1" edge="1">
          <mxGeometry relative="1" as="geometry">
            <mxPoint x="358" y="8350" as="sourcePoint" />
            <mxPoint x="358.5" y="8370" as="targetPoint" />
          </mxGeometry>
        </mxCell>
        <mxCell id="x0n5BMUEkLOeOddu-3SM-146" value="&lt;span style=&quot;font-size: 12px;&quot;&gt;int pos = 0;&lt;/span&gt;" style="rounded=1;whiteSpace=wrap;html=1;absoluteArcSize=1;arcSize=14;strokeWidth=2;" parent="1" vertex="1">
          <mxGeometry x="283" y="8370" width="155" height="100" as="geometry" />
        </mxCell>
        <mxCell id="x0n5BMUEkLOeOddu-3SM-147" value="" style="edgeStyle=orthogonalEdgeStyle;rounded=0;orthogonalLoop=1;jettySize=auto;html=1;" parent="1" edge="1">
          <mxGeometry relative="1" as="geometry">
            <mxPoint x="360" y="8470" as="sourcePoint" />
            <mxPoint x="360.5" y="8490" as="targetPoint" />
          </mxGeometry>
        </mxCell>
        <mxCell id="x0n5BMUEkLOeOddu-3SM-148" value="&lt;span style=&quot;font-size: 12px;&quot;&gt;pos &amp;lt;= reading.size()&lt;/span&gt;" style="rhombus;whiteSpace=wrap;html=1;" parent="1" vertex="1">
          <mxGeometry x="283" y="8490" width="156" height="100" as="geometry" />
        </mxCell>
        <mxCell id="x0n5BMUEkLOeOddu-3SM-149" value="" style="edgeStyle=orthogonalEdgeStyle;rounded=0;orthogonalLoop=1;jettySize=auto;html=1;" parent="1" edge="1">
          <mxGeometry relative="1" as="geometry">
            <mxPoint x="362" y="8590" as="sourcePoint" />
            <mxPoint x="362.5" y="8610" as="targetPoint" />
          </mxGeometry>
        </mxCell>
        <mxCell id="x0n5BMUEkLOeOddu-3SM-150" value="[4]" style="rhombus;whiteSpace=wrap;html=1;" parent="1" vertex="1">
          <mxGeometry x="285" y="8610" width="156" height="100" as="geometry" />
        </mxCell>
        <mxCell id="x0n5BMUEkLOeOddu-3SM-151" value="" style="endArrow=none;html=1;rounded=0;" parent="1" edge="1">
          <mxGeometry width="50" height="50" relative="1" as="geometry">
            <mxPoint x="217" y="8660" as="sourcePoint" />
            <mxPoint x="285.0006781186547" y="8659.5" as="targetPoint" />
          </mxGeometry>
        </mxCell>
        <mxCell id="x0n5BMUEkLOeOddu-3SM-152" value="" style="endArrow=none;html=1;rounded=0;" parent="1" edge="1">
          <mxGeometry width="50" height="50" relative="1" as="geometry">
            <mxPoint x="439" y="8660" as="sourcePoint" />
            <mxPoint x="520" y="8660" as="targetPoint" />
          </mxGeometry>
        </mxCell>
        <mxCell id="x0n5BMUEkLOeOddu-3SM-153" value="" style="edgeStyle=orthogonalEdgeStyle;rounded=0;orthogonalLoop=1;jettySize=auto;html=1;" parent="1" edge="1">
          <mxGeometry relative="1" as="geometry">
            <mxPoint x="217.5" y="8660" as="sourcePoint" />
            <mxPoint x="218" y="8680" as="targetPoint" />
          </mxGeometry>
        </mxCell>
        <mxCell id="x0n5BMUEkLOeOddu-3SM-154" value="&lt;span style=&quot;font-size: 12px;&quot;&gt;mobile += reading.substr(pos, 13) + &quot; - Number from Russia&quot; + &quot;\n&quot;;&lt;/span&gt;" style="rounded=1;whiteSpace=wrap;html=1;absoluteArcSize=1;arcSize=14;strokeWidth=2;" parent="1" vertex="1">
          <mxGeometry x="145.5" y="8680" width="155" height="100" as="geometry" />
        </mxCell>
        <mxCell id="x0n5BMUEkLOeOddu-3SM-155" value="" style="edgeStyle=orthogonalEdgeStyle;rounded=0;orthogonalLoop=1;jettySize=auto;html=1;" parent="1" edge="1">
          <mxGeometry relative="1" as="geometry">
            <mxPoint x="214.5" y="8780" as="sourcePoint" />
            <mxPoint x="215" y="8800" as="targetPoint" />
          </mxGeometry>
        </mxCell>
        <mxCell id="x0n5BMUEkLOeOddu-3SM-157" value="&lt;font style=&quot;font-size: 10px;&quot;&gt;&quot;Number find from &quot; &amp;lt;&amp;lt; pos &amp;lt;&amp;lt; &quot; &quot; &amp;lt;&amp;lt; &quot;to &quot; &amp;lt;&amp;lt; pos + 13&lt;/font&gt;" style="shape=parallelogram;perimeter=parallelogramPerimeter;whiteSpace=wrap;html=1;fixedSize=1;" parent="1" vertex="1">
          <mxGeometry x="133" y="8800" width="150" height="100" as="geometry" />
        </mxCell>
        <mxCell id="x0n5BMUEkLOeOddu-3SM-158" value="" style="edgeStyle=orthogonalEdgeStyle;rounded=0;orthogonalLoop=1;jettySize=auto;html=1;" parent="1" edge="1">
          <mxGeometry relative="1" as="geometry">
            <mxPoint x="214.5" y="8900" as="sourcePoint" />
            <mxPoint x="200" y="8920" as="targetPoint" />
          </mxGeometry>
        </mxCell>
        <mxCell id="x0n5BMUEkLOeOddu-3SM-159" value="&lt;div&gt;&lt;span style=&quot;font-size: 12px;&quot;&gt;pos += 13;&lt;/span&gt;&lt;/div&gt;&lt;div&gt;&lt;span style=&quot;font-size: 12px;&quot;&gt;findNumbers = true;&lt;/span&gt;&lt;/div&gt;" style="rounded=1;whiteSpace=wrap;html=1;absoluteArcSize=1;arcSize=14;strokeWidth=2;" parent="1" vertex="1">
          <mxGeometry x="122" y="8920" width="155" height="100" as="geometry" />
        </mxCell>
        <mxCell id="x0n5BMUEkLOeOddu-3SM-160" value="" style="endArrow=none;html=1;rounded=0;" parent="1" edge="1">
          <mxGeometry width="50" height="50" relative="1" as="geometry">
            <mxPoint x="520" y="9030" as="sourcePoint" />
            <mxPoint x="515" y="8660" as="targetPoint" />
          </mxGeometry>
        </mxCell>
        <mxCell id="x0n5BMUEkLOeOddu-3SM-161" value="" style="endArrow=none;html=1;rounded=0;" parent="1" edge="1">
          <mxGeometry width="50" height="50" relative="1" as="geometry">
            <mxPoint x="198" y="9030" as="sourcePoint" />
            <mxPoint x="197.5" y="9020" as="targetPoint" />
          </mxGeometry>
        </mxCell>
        <mxCell id="x0n5BMUEkLOeOddu-3SM-162" value="" style="endArrow=none;html=1;rounded=0;" parent="1" edge="1">
          <mxGeometry width="50" height="50" relative="1" as="geometry">
            <mxPoint x="201" y="9030" as="sourcePoint" />
            <mxPoint x="521" y="9030" as="targetPoint" />
          </mxGeometry>
        </mxCell>
        <mxCell id="x0n5BMUEkLOeOddu-3SM-163" value="" style="edgeStyle=orthogonalEdgeStyle;rounded=0;orthogonalLoop=1;jettySize=auto;html=1;" parent="1" edge="1">
          <mxGeometry relative="1" as="geometry">
            <mxPoint x="363.5" y="9030" as="sourcePoint" />
            <mxPoint x="364" y="9050" as="targetPoint" />
          </mxGeometry>
        </mxCell>
        <mxCell id="x0n5BMUEkLOeOddu-3SM-164" value="1" style="ellipse;whiteSpace=wrap;html=1;aspect=fixed;" parent="1" vertex="1">
          <mxGeometry x="336.5" y="9050" width="50" height="50" as="geometry" />
        </mxCell>
        <mxCell id="x0n5BMUEkLOeOddu-3SM-165" value="" style="endArrow=none;dashed=1;html=1;rounded=0;" parent="1" edge="1">
          <mxGeometry width="50" height="50" relative="1" as="geometry">
            <mxPoint x="388.5" y="9074.5" as="sourcePoint" />
            <mxPoint x="408.5" y="9074.5" as="targetPoint" />
          </mxGeometry>
        </mxCell>
        <mxCell id="x0n5BMUEkLOeOddu-3SM-166" value="из бл4 стр14 в бл8 стр15" style="text;html=1;strokeColor=none;fillColor=none;align=center;verticalAlign=middle;whiteSpace=wrap;rounded=0;" parent="1" vertex="1">
          <mxGeometry x="433.5" y="9050" width="60" height="45" as="geometry" />
        </mxCell>
        <mxCell id="x0n5BMUEkLOeOddu-3SM-167" value="" style="strokeWidth=2;html=1;shape=mxgraph.flowchart.annotation_2;align=left;labelPosition=right;pointerEvents=1;rotation=0;" parent="1" vertex="1">
          <mxGeometry x="413" y="9050" width="30" height="50" as="geometry" />
        </mxCell>
        <mxCell id="x0n5BMUEkLOeOddu-3SM-168" value="" style="endArrow=none;html=1;rounded=0;" parent="1" edge="1">
          <mxGeometry width="50" height="50" relative="1" as="geometry">
            <mxPoint x="435" y="8539.5" as="sourcePoint" />
            <mxPoint x="600" y="8540" as="targetPoint" />
          </mxGeometry>
        </mxCell>
        <mxCell id="x0n5BMUEkLOeOddu-3SM-170" value="" style="endArrow=classic;html=1;rounded=0;" parent="1" edge="1">
          <mxGeometry width="50" height="50" relative="1" as="geometry">
            <mxPoint x="595" y="8540" as="sourcePoint" />
            <mxPoint x="595" y="8620" as="targetPoint" />
          </mxGeometry>
        </mxCell>
        <mxCell id="x0n5BMUEkLOeOddu-3SM-171" value="2" style="ellipse;whiteSpace=wrap;html=1;aspect=fixed;" parent="1" vertex="1">
          <mxGeometry x="574.5" y="8620" width="50" height="50" as="geometry" />
        </mxCell>
        <mxCell id="x0n5BMUEkLOeOddu-3SM-172" value="" style="endArrow=none;dashed=1;html=1;rounded=0;" parent="1" edge="1">
          <mxGeometry width="50" height="50" relative="1" as="geometry">
            <mxPoint x="626.5" y="8644.5" as="sourcePoint" />
            <mxPoint x="646.5" y="8644.5" as="targetPoint" />
          </mxGeometry>
        </mxCell>
        <mxCell id="x0n5BMUEkLOeOddu-3SM-173" value="из бл3 стр14 в бл21 стр18" style="text;html=1;strokeColor=none;fillColor=none;align=center;verticalAlign=middle;whiteSpace=wrap;rounded=0;" parent="1" vertex="1">
          <mxGeometry x="671.5" y="8620" width="60" height="45" as="geometry" />
        </mxCell>
        <mxCell id="x0n5BMUEkLOeOddu-3SM-174" value="" style="strokeWidth=2;html=1;shape=mxgraph.flowchart.annotation_2;align=left;labelPosition=right;pointerEvents=1;rotation=0;" parent="1" vertex="1">
          <mxGeometry x="651" y="8620" width="30" height="50" as="geometry" />
        </mxCell>
        <mxCell id="x0n5BMUEkLOeOddu-3SM-175" value="" style="endArrow=classic;html=1;rounded=0;" parent="1" edge="1">
          <mxGeometry width="50" height="50" relative="1" as="geometry">
            <mxPoint x="80" y="8540" as="sourcePoint" />
            <mxPoint x="283" y="8539.5" as="targetPoint" />
          </mxGeometry>
        </mxCell>
        <mxCell id="x0n5BMUEkLOeOddu-3SM-176" value="" style="endArrow=none;html=1;rounded=0;" parent="1" edge="1">
          <mxGeometry width="50" height="50" relative="1" as="geometry">
            <mxPoint x="90" y="8800" as="sourcePoint" />
            <mxPoint x="84.5" y="8540" as="targetPoint" />
          </mxGeometry>
        </mxCell>
        <mxCell id="x0n5BMUEkLOeOddu-3SM-177" value="3" style="ellipse;whiteSpace=wrap;html=1;aspect=fixed;" parent="1" vertex="1">
          <mxGeometry x="64" y="8800" width="50" height="50" as="geometry" />
        </mxCell>
        <mxCell id="x0n5BMUEkLOeOddu-3SM-178" value="" style="endArrow=none;dashed=1;html=1;rounded=0;" parent="1" edge="1">
          <mxGeometry width="50" height="50" relative="1" as="geometry">
            <mxPoint x="44" y="8824.5" as="sourcePoint" />
            <mxPoint x="64" y="8824.5" as="targetPoint" />
          </mxGeometry>
        </mxCell>
        <mxCell id="x0n5BMUEkLOeOddu-3SM-179" value="" style="strokeWidth=2;html=1;shape=mxgraph.flowchart.annotation_2;align=left;labelPosition=right;pointerEvents=1;rotation=-180;" parent="1" vertex="1">
          <mxGeometry x="11.5" y="8800" width="30" height="50" as="geometry" />
        </mxCell>
        <mxCell id="x0n5BMUEkLOeOddu-3SM-181" value="1" style="ellipse;whiteSpace=wrap;html=1;aspect=fixed;" parent="1" vertex="1">
          <mxGeometry x="323.5" y="9430" width="50" height="50" as="geometry" />
        </mxCell>
        <mxCell id="x0n5BMUEkLOeOddu-3SM-182" value="" style="endArrow=none;dashed=1;html=1;rounded=0;" parent="1" edge="1">
          <mxGeometry width="50" height="50" relative="1" as="geometry">
            <mxPoint x="375.5" y="9454.5" as="sourcePoint" />
            <mxPoint x="395.5" y="9454.5" as="targetPoint" />
          </mxGeometry>
        </mxCell>
        <mxCell id="x0n5BMUEkLOeOddu-3SM-184" value="" style="strokeWidth=2;html=1;shape=mxgraph.flowchart.annotation_2;align=left;labelPosition=right;pointerEvents=1;rotation=0;" parent="1" vertex="1">
          <mxGeometry x="400" y="9430" width="30" height="50" as="geometry" />
        </mxCell>
        <mxCell id="x0n5BMUEkLOeOddu-3SM-185" value="" style="edgeStyle=orthogonalEdgeStyle;rounded=0;orthogonalLoop=1;jettySize=auto;html=1;" parent="1" edge="1">
          <mxGeometry relative="1" as="geometry">
            <mxPoint x="348" y="9480" as="sourcePoint" />
            <mxPoint x="348.5" y="9500" as="targetPoint" />
          </mxGeometry>
        </mxCell>
        <mxCell id="x0n5BMUEkLOeOddu-3SM-186" value="[5]" style="rhombus;whiteSpace=wrap;html=1;" parent="1" vertex="1">
          <mxGeometry x="270.5" y="9500" width="156" height="100" as="geometry" />
        </mxCell>
        <mxCell id="x0n5BMUEkLOeOddu-3SM-187" value="" style="endArrow=none;html=1;rounded=0;" parent="1" edge="1">
          <mxGeometry width="50" height="50" relative="1" as="geometry">
            <mxPoint x="202.5" y="9550" as="sourcePoint" />
            <mxPoint x="270.5006781186547" y="9549.5" as="targetPoint" />
          </mxGeometry>
        </mxCell>
        <mxCell id="x0n5BMUEkLOeOddu-3SM-188" value="" style="endArrow=none;html=1;rounded=0;" parent="1" edge="1">
          <mxGeometry width="50" height="50" relative="1" as="geometry">
            <mxPoint x="424.5" y="9550" as="sourcePoint" />
            <mxPoint x="492.5006781186547" y="9549.5" as="targetPoint" />
          </mxGeometry>
        </mxCell>
        <mxCell id="x0n5BMUEkLOeOddu-3SM-189" value="" style="endArrow=none;html=1;rounded=0;" parent="1" edge="1">
          <mxGeometry width="50" height="50" relative="1" as="geometry">
            <mxPoint x="199.5" y="9550.5" as="sourcePoint" />
            <mxPoint x="267.5006781186547" y="9550" as="targetPoint" />
          </mxGeometry>
        </mxCell>
        <mxCell id="x0n5BMUEkLOeOddu-3SM-190" value="" style="edgeStyle=orthogonalEdgeStyle;rounded=0;orthogonalLoop=1;jettySize=auto;html=1;" parent="1" edge="1">
          <mxGeometry relative="1" as="geometry">
            <mxPoint x="200" y="9550.5" as="sourcePoint" />
            <mxPoint x="200.5" y="9570.5" as="targetPoint" />
          </mxGeometry>
        </mxCell>
        <mxCell id="x0n5BMUEkLOeOddu-3SM-191" value="&lt;span style=&quot;font-size: 12px;&quot;&gt;mobile += reading.substr(pos, 14) +&quot; - Number from Russia&quot; + &quot;\n&quot;;&lt;/span&gt;" style="rounded=1;whiteSpace=wrap;html=1;absoluteArcSize=1;arcSize=14;strokeWidth=2;" parent="1" vertex="1">
          <mxGeometry x="128" y="9570.5" width="155" height="100" as="geometry" />
        </mxCell>
        <mxCell id="x0n5BMUEkLOeOddu-3SM-192" value="" style="edgeStyle=orthogonalEdgeStyle;rounded=0;orthogonalLoop=1;jettySize=auto;html=1;" parent="1" edge="1">
          <mxGeometry relative="1" as="geometry">
            <mxPoint x="197" y="9670.5" as="sourcePoint" />
            <mxPoint x="197.5" y="9690.5" as="targetPoint" />
          </mxGeometry>
        </mxCell>
        <mxCell id="x0n5BMUEkLOeOddu-3SM-193" value="&lt;span style=&quot;font-size: 12px;&quot;&gt;&quot;Numbers find from &quot; &amp;lt;&amp;lt; pos &amp;lt;&amp;lt; &quot; &quot; &amp;lt;&amp;lt; &quot;to &quot; &amp;lt;&amp;lt; pos + 14&lt;/span&gt;" style="shape=parallelogram;perimeter=parallelogramPerimeter;whiteSpace=wrap;html=1;fixedSize=1;" parent="1" vertex="1">
          <mxGeometry x="115.5" y="9690.5" width="150" height="100" as="geometry" />
        </mxCell>
        <mxCell id="x0n5BMUEkLOeOddu-3SM-194" value="" style="edgeStyle=orthogonalEdgeStyle;rounded=0;orthogonalLoop=1;jettySize=auto;html=1;" parent="1" edge="1">
          <mxGeometry relative="1" as="geometry">
            <mxPoint x="197" y="9790.5" as="sourcePoint" />
            <mxPoint x="182.5" y="9810.5" as="targetPoint" />
          </mxGeometry>
        </mxCell>
        <mxCell id="x0n5BMUEkLOeOddu-3SM-195" value="&lt;div&gt;&lt;span style=&quot;font-size: 12px;&quot;&gt;pos += 14;&lt;/span&gt;&lt;/div&gt;&lt;div&gt;&lt;span style=&quot;font-size: 12px;&quot;&gt;findNumbers = true;&lt;/span&gt;&lt;/div&gt;" style="rounded=1;whiteSpace=wrap;html=1;absoluteArcSize=1;arcSize=14;strokeWidth=2;" parent="1" vertex="1">
          <mxGeometry x="104.5" y="9810.5" width="155" height="100" as="geometry" />
        </mxCell>
        <mxCell id="x0n5BMUEkLOeOddu-3SM-196" value="" style="endArrow=none;html=1;rounded=0;" parent="1" edge="1">
          <mxGeometry width="50" height="50" relative="1" as="geometry">
            <mxPoint x="182.5" y="9930.5" as="sourcePoint" />
            <mxPoint x="182.5" y="9910.5" as="targetPoint" />
          </mxGeometry>
        </mxCell>
        <mxCell id="x0n5BMUEkLOeOddu-3SM-197" value="" style="endArrow=none;html=1;rounded=0;" parent="1" edge="1">
          <mxGeometry width="50" height="50" relative="1" as="geometry">
            <mxPoint x="490" y="9930" as="sourcePoint" />
            <mxPoint x="489.5" y="9550" as="targetPoint" />
          </mxGeometry>
        </mxCell>
        <mxCell id="x0n5BMUEkLOeOddu-3SM-198" value="" style="endArrow=none;html=1;rounded=0;" parent="1" edge="1">
          <mxGeometry width="50" height="50" relative="1" as="geometry">
            <mxPoint x="180" y="9930" as="sourcePoint" />
            <mxPoint x="490" y="9930" as="targetPoint" />
          </mxGeometry>
        </mxCell>
        <mxCell id="x0n5BMUEkLOeOddu-3SM-199" value="" style="edgeStyle=orthogonalEdgeStyle;rounded=0;orthogonalLoop=1;jettySize=auto;html=1;" parent="1" edge="1">
          <mxGeometry relative="1" as="geometry">
            <mxPoint x="350" y="9930" as="sourcePoint" />
            <mxPoint x="350" y="9957" as="targetPoint" />
          </mxGeometry>
        </mxCell>
        <mxCell id="x0n5BMUEkLOeOddu-3SM-200" value="[6]" style="rhombus;whiteSpace=wrap;html=1;" parent="1" vertex="1">
          <mxGeometry x="259.5" y="10290" width="156" height="100" as="geometry" />
        </mxCell>
        <mxCell id="x0n5BMUEkLOeOddu-3SM-201" value="" style="endArrow=none;html=1;rounded=0;" parent="1" edge="1">
          <mxGeometry width="50" height="50" relative="1" as="geometry">
            <mxPoint x="191.5" y="10340" as="sourcePoint" />
            <mxPoint x="259.5006781186547" y="10339.5" as="targetPoint" />
          </mxGeometry>
        </mxCell>
        <mxCell id="x0n5BMUEkLOeOddu-3SM-202" value="" style="endArrow=none;html=1;rounded=0;" parent="1" edge="1">
          <mxGeometry width="50" height="50" relative="1" as="geometry">
            <mxPoint x="413.5" y="10340" as="sourcePoint" />
            <mxPoint x="481.5006781186547" y="10339.5" as="targetPoint" />
          </mxGeometry>
        </mxCell>
        <mxCell id="x0n5BMUEkLOeOddu-3SM-203" value="" style="endArrow=none;html=1;rounded=0;" parent="1" edge="1">
          <mxGeometry width="50" height="50" relative="1" as="geometry">
            <mxPoint x="188.5" y="10340.5" as="sourcePoint" />
            <mxPoint x="256.5006781186547" y="10340" as="targetPoint" />
          </mxGeometry>
        </mxCell>
        <mxCell id="x0n5BMUEkLOeOddu-3SM-204" value="" style="edgeStyle=orthogonalEdgeStyle;rounded=0;orthogonalLoop=1;jettySize=auto;html=1;" parent="1" edge="1">
          <mxGeometry relative="1" as="geometry">
            <mxPoint x="189" y="10340.5" as="sourcePoint" />
            <mxPoint x="189.5" y="10360.5" as="targetPoint" />
          </mxGeometry>
        </mxCell>
        <mxCell id="x0n5BMUEkLOeOddu-3SM-205" value="&lt;span style=&quot;font-size: 12px;&quot;&gt;mobile += reading.substr(pos, 14) +&quot; - Number from USA&quot; +&quot;\n&quot;;&lt;/span&gt;" style="rounded=1;whiteSpace=wrap;html=1;absoluteArcSize=1;arcSize=14;strokeWidth=2;" parent="1" vertex="1">
          <mxGeometry x="117" y="10360.5" width="155" height="100" as="geometry" />
        </mxCell>
        <mxCell id="x0n5BMUEkLOeOddu-3SM-206" value="" style="edgeStyle=orthogonalEdgeStyle;rounded=0;orthogonalLoop=1;jettySize=auto;html=1;" parent="1" edge="1">
          <mxGeometry relative="1" as="geometry">
            <mxPoint x="186" y="10460.5" as="sourcePoint" />
            <mxPoint x="186.5" y="10480.5" as="targetPoint" />
          </mxGeometry>
        </mxCell>
        <mxCell id="x0n5BMUEkLOeOddu-3SM-207" value="&lt;span style=&quot;font-size: 12px;&quot;&gt;Numbers find from &quot; &amp;lt;&amp;lt; pos &amp;lt;&amp;lt; &quot; &quot; &amp;lt;&amp;lt; &quot;to &quot; &amp;lt;&amp;lt; pos + 14&lt;/span&gt;" style="shape=parallelogram;perimeter=parallelogramPerimeter;whiteSpace=wrap;html=1;fixedSize=1;" parent="1" vertex="1">
          <mxGeometry x="104.5" y="10480.5" width="150" height="100" as="geometry" />
        </mxCell>
        <mxCell id="x0n5BMUEkLOeOddu-3SM-208" value="" style="edgeStyle=orthogonalEdgeStyle;rounded=0;orthogonalLoop=1;jettySize=auto;html=1;" parent="1" edge="1">
          <mxGeometry relative="1" as="geometry">
            <mxPoint x="186" y="10580.5" as="sourcePoint" />
            <mxPoint x="171.5" y="10600.5" as="targetPoint" />
          </mxGeometry>
        </mxCell>
        <mxCell id="x0n5BMUEkLOeOddu-3SM-209" value="&lt;div&gt;&lt;span style=&quot;font-size: 12px;&quot;&gt;pos += 14;&lt;/span&gt;&lt;/div&gt;&lt;div&gt;&lt;span style=&quot;font-size: 12px;&quot;&gt;findNumbers = true;&lt;/span&gt;&lt;/div&gt;" style="rounded=1;whiteSpace=wrap;html=1;absoluteArcSize=1;arcSize=14;strokeWidth=2;" parent="1" vertex="1">
          <mxGeometry x="93.5" y="10600.5" width="155" height="100" as="geometry" />
        </mxCell>
        <mxCell id="x0n5BMUEkLOeOddu-3SM-210" value="" style="endArrow=none;html=1;rounded=0;" parent="1" edge="1">
          <mxGeometry width="50" height="50" relative="1" as="geometry">
            <mxPoint x="171.5" y="10720.5" as="sourcePoint" />
            <mxPoint x="171.5" y="10700.5" as="targetPoint" />
          </mxGeometry>
        </mxCell>
        <mxCell id="x0n5BMUEkLOeOddu-3SM-211" value="" style="endArrow=none;html=1;rounded=0;" parent="1" edge="1">
          <mxGeometry width="50" height="50" relative="1" as="geometry">
            <mxPoint x="479" y="10720" as="sourcePoint" />
            <mxPoint x="478.5" y="10340" as="targetPoint" />
          </mxGeometry>
        </mxCell>
        <mxCell id="x0n5BMUEkLOeOddu-3SM-212" value="" style="endArrow=none;html=1;rounded=0;" parent="1" edge="1">
          <mxGeometry width="50" height="50" relative="1" as="geometry">
            <mxPoint x="169" y="10720" as="sourcePoint" />
            <mxPoint x="479" y="10720" as="targetPoint" />
          </mxGeometry>
        </mxCell>
        <mxCell id="x0n5BMUEkLOeOddu-3SM-213" value="4" style="ellipse;whiteSpace=wrap;html=1;aspect=fixed;" parent="1" vertex="1">
          <mxGeometry x="323.5" y="9960" width="50" height="50" as="geometry" />
        </mxCell>
        <mxCell id="x0n5BMUEkLOeOddu-3SM-214" value="" style="endArrow=none;dashed=1;html=1;rounded=0;" parent="1" edge="1">
          <mxGeometry width="50" height="50" relative="1" as="geometry">
            <mxPoint x="375.5" y="9984.5" as="sourcePoint" />
            <mxPoint x="395.5" y="9984.5" as="targetPoint" />
          </mxGeometry>
        </mxCell>
        <mxCell id="x0n5BMUEkLOeOddu-3SM-215" value="из бл8 стр15 в бл12 стр16" style="text;html=1;strokeColor=none;fillColor=none;align=center;verticalAlign=middle;whiteSpace=wrap;rounded=0;" parent="1" vertex="1">
          <mxGeometry x="420.5" y="9960" width="60" height="45" as="geometry" />
        </mxCell>
        <mxCell id="x0n5BMUEkLOeOddu-3SM-216" value="" style="strokeWidth=2;html=1;shape=mxgraph.flowchart.annotation_2;align=left;labelPosition=right;pointerEvents=1;rotation=0;" parent="1" vertex="1">
          <mxGeometry x="400" y="9960" width="30" height="50" as="geometry" />
        </mxCell>
        <mxCell id="x0n5BMUEkLOeOddu-3SM-217" value="4" style="ellipse;whiteSpace=wrap;html=1;aspect=fixed;" parent="1" vertex="1">
          <mxGeometry x="312.5" y="10220" width="50" height="50" as="geometry" />
        </mxCell>
        <mxCell id="x0n5BMUEkLOeOddu-3SM-218" value="" style="endArrow=none;dashed=1;html=1;rounded=0;" parent="1" edge="1">
          <mxGeometry width="50" height="50" relative="1" as="geometry">
            <mxPoint x="364.5" y="10244.5" as="sourcePoint" />
            <mxPoint x="384.5" y="10244.5" as="targetPoint" />
          </mxGeometry>
        </mxCell>
        <mxCell id="x0n5BMUEkLOeOddu-3SM-220" value="" style="strokeWidth=2;html=1;shape=mxgraph.flowchart.annotation_2;align=left;labelPosition=right;pointerEvents=1;rotation=0;" parent="1" vertex="1">
          <mxGeometry x="389" y="10220" width="30" height="50" as="geometry" />
        </mxCell>
        <mxCell id="x0n5BMUEkLOeOddu-3SM-221" value="" style="edgeStyle=orthogonalEdgeStyle;rounded=0;orthogonalLoop=1;jettySize=auto;html=1;" parent="1" edge="1">
          <mxGeometry relative="1" as="geometry">
            <mxPoint x="337" y="10270" as="sourcePoint" />
            <mxPoint x="337.5" y="10290" as="targetPoint" />
          </mxGeometry>
        </mxCell>
        <mxCell id="x0n5BMUEkLOeOddu-3SM-222" value="" style="edgeStyle=orthogonalEdgeStyle;rounded=0;orthogonalLoop=1;jettySize=auto;html=1;" parent="1" edge="1">
          <mxGeometry relative="1" as="geometry">
            <mxPoint x="337" y="10720" as="sourcePoint" />
            <mxPoint x="337" y="10747" as="targetPoint" />
          </mxGeometry>
        </mxCell>
        <mxCell id="x0n5BMUEkLOeOddu-3SM-223" value="5" style="ellipse;whiteSpace=wrap;html=1;aspect=fixed;" parent="1" vertex="1">
          <mxGeometry x="312.5" y="10750" width="50" height="50" as="geometry" />
        </mxCell>
        <mxCell id="x0n5BMUEkLOeOddu-3SM-224" value="" style="endArrow=none;dashed=1;html=1;rounded=0;" parent="1" edge="1">
          <mxGeometry width="50" height="50" relative="1" as="geometry">
            <mxPoint x="364.5" y="10774.5" as="sourcePoint" />
            <mxPoint x="384.5" y="10774.5" as="targetPoint" />
          </mxGeometry>
        </mxCell>
        <mxCell id="x0n5BMUEkLOeOddu-3SM-225" value="из бл12 стр16 в бл16 стр17" style="text;html=1;strokeColor=none;fillColor=none;align=center;verticalAlign=middle;whiteSpace=wrap;rounded=0;" parent="1" vertex="1">
          <mxGeometry x="409.5" y="10750" width="60" height="45" as="geometry" />
        </mxCell>
        <mxCell id="x0n5BMUEkLOeOddu-3SM-226" value="" style="strokeWidth=2;html=1;shape=mxgraph.flowchart.annotation_2;align=left;labelPosition=right;pointerEvents=1;rotation=0;" parent="1" vertex="1">
          <mxGeometry x="389" y="10750" width="30" height="50" as="geometry" />
        </mxCell>
        <mxCell id="x0n5BMUEkLOeOddu-3SM-227" value="5" style="ellipse;whiteSpace=wrap;html=1;aspect=fixed;" parent="1" vertex="1">
          <mxGeometry x="308" y="10960" width="50" height="50" as="geometry" />
        </mxCell>
        <mxCell id="x0n5BMUEkLOeOddu-3SM-228" value="" style="endArrow=none;dashed=1;html=1;rounded=0;" parent="1" edge="1">
          <mxGeometry width="50" height="50" relative="1" as="geometry">
            <mxPoint x="360" y="10984.5" as="sourcePoint" />
            <mxPoint x="380" y="10984.5" as="targetPoint" />
          </mxGeometry>
        </mxCell>
        <mxCell id="x0n5BMUEkLOeOddu-3SM-230" value="" style="strokeWidth=2;html=1;shape=mxgraph.flowchart.annotation_2;align=left;labelPosition=right;pointerEvents=1;rotation=0;" parent="1" vertex="1">
          <mxGeometry x="384.5" y="10960" width="30" height="50" as="geometry" />
        </mxCell>
        <mxCell id="x0n5BMUEkLOeOddu-3SM-231" value="" style="edgeStyle=orthogonalEdgeStyle;rounded=0;orthogonalLoop=1;jettySize=auto;html=1;" parent="1" edge="1">
          <mxGeometry relative="1" as="geometry">
            <mxPoint x="332.5" y="11010" as="sourcePoint" />
            <mxPoint x="333" y="11030" as="targetPoint" />
          </mxGeometry>
        </mxCell>
        <mxCell id="x0n5BMUEkLOeOddu-3SM-232" value="[7]" style="rhombus;whiteSpace=wrap;html=1;" parent="1" vertex="1">
          <mxGeometry x="256" y="11030" width="156" height="100" as="geometry" />
        </mxCell>
        <mxCell id="x0n5BMUEkLOeOddu-3SM-233" value="" style="endArrow=none;html=1;rounded=0;" parent="1" edge="1">
          <mxGeometry width="50" height="50" relative="1" as="geometry">
            <mxPoint x="188" y="11080" as="sourcePoint" />
            <mxPoint x="256.0006781186547" y="11079.5" as="targetPoint" />
          </mxGeometry>
        </mxCell>
        <mxCell id="x0n5BMUEkLOeOddu-3SM-234" value="" style="endArrow=none;html=1;rounded=0;" parent="1" edge="1">
          <mxGeometry width="50" height="50" relative="1" as="geometry">
            <mxPoint x="410" y="11080" as="sourcePoint" />
            <mxPoint x="478.0006781186547" y="11079.5" as="targetPoint" />
          </mxGeometry>
        </mxCell>
        <mxCell id="x0n5BMUEkLOeOddu-3SM-235" value="" style="endArrow=none;html=1;rounded=0;" parent="1" edge="1">
          <mxGeometry width="50" height="50" relative="1" as="geometry">
            <mxPoint x="185" y="11080.5" as="sourcePoint" />
            <mxPoint x="253.00067811865472" y="11080" as="targetPoint" />
          </mxGeometry>
        </mxCell>
        <mxCell id="x0n5BMUEkLOeOddu-3SM-236" value="" style="edgeStyle=orthogonalEdgeStyle;rounded=0;orthogonalLoop=1;jettySize=auto;html=1;" parent="1" edge="1">
          <mxGeometry relative="1" as="geometry">
            <mxPoint x="185.5" y="11080.5" as="sourcePoint" />
            <mxPoint x="186" y="11100.5" as="targetPoint" />
          </mxGeometry>
        </mxCell>
        <mxCell id="x0n5BMUEkLOeOddu-3SM-237" value="&lt;span style=&quot;font-size: 12px;&quot;&gt;mobile += reading.substr(pos, 14) + &quot; - Number from Birma&quot;+&quot;\n&quot;;&lt;/span&gt;" style="rounded=1;whiteSpace=wrap;html=1;absoluteArcSize=1;arcSize=14;strokeWidth=2;" parent="1" vertex="1">
          <mxGeometry x="113.5" y="11100.5" width="155" height="100" as="geometry" />
        </mxCell>
        <mxCell id="x0n5BMUEkLOeOddu-3SM-238" value="" style="edgeStyle=orthogonalEdgeStyle;rounded=0;orthogonalLoop=1;jettySize=auto;html=1;" parent="1" edge="1">
          <mxGeometry relative="1" as="geometry">
            <mxPoint x="182.5" y="11200.5" as="sourcePoint" />
            <mxPoint x="183" y="11220.5" as="targetPoint" />
          </mxGeometry>
        </mxCell>
        <mxCell id="x0n5BMUEkLOeOddu-3SM-239" value="&lt;span style=&quot;font-size: 12px;&quot;&gt;Numbers find from &quot; &amp;lt;&amp;lt; pos &amp;lt;&amp;lt; &quot; &quot; &amp;lt;&amp;lt; &quot;to &quot; &amp;lt;&amp;lt; pos + 14&lt;/span&gt;" style="shape=parallelogram;perimeter=parallelogramPerimeter;whiteSpace=wrap;html=1;fixedSize=1;" parent="1" vertex="1">
          <mxGeometry x="101" y="11220.5" width="150" height="100" as="geometry" />
        </mxCell>
        <mxCell id="x0n5BMUEkLOeOddu-3SM-240" value="" style="edgeStyle=orthogonalEdgeStyle;rounded=0;orthogonalLoop=1;jettySize=auto;html=1;" parent="1" edge="1">
          <mxGeometry relative="1" as="geometry">
            <mxPoint x="182.5" y="11320.5" as="sourcePoint" />
            <mxPoint x="168" y="11340.5" as="targetPoint" />
          </mxGeometry>
        </mxCell>
        <mxCell id="x0n5BMUEkLOeOddu-3SM-241" value="&lt;div&gt;&lt;span style=&quot;font-size: 12px;&quot;&gt;pos += 14;&lt;/span&gt;&lt;/div&gt;&lt;div&gt;&lt;span style=&quot;font-size: 12px;&quot;&gt;findNumbers = true;&lt;/span&gt;&lt;/div&gt;" style="rounded=1;whiteSpace=wrap;html=1;absoluteArcSize=1;arcSize=14;strokeWidth=2;" parent="1" vertex="1">
          <mxGeometry x="90" y="11340.5" width="155" height="100" as="geometry" />
        </mxCell>
        <mxCell id="x0n5BMUEkLOeOddu-3SM-242" value="" style="endArrow=none;html=1;rounded=0;" parent="1" edge="1">
          <mxGeometry width="50" height="50" relative="1" as="geometry">
            <mxPoint x="168" y="11460.5" as="sourcePoint" />
            <mxPoint x="168" y="11440.5" as="targetPoint" />
          </mxGeometry>
        </mxCell>
        <mxCell id="x0n5BMUEkLOeOddu-3SM-243" value="" style="endArrow=none;html=1;rounded=0;" parent="1" edge="1">
          <mxGeometry width="50" height="50" relative="1" as="geometry">
            <mxPoint x="475.5" y="11460" as="sourcePoint" />
            <mxPoint x="475" y="11080" as="targetPoint" />
          </mxGeometry>
        </mxCell>
        <mxCell id="x0n5BMUEkLOeOddu-3SM-244" value="" style="endArrow=none;html=1;rounded=0;" parent="1" edge="1">
          <mxGeometry width="50" height="50" relative="1" as="geometry">
            <mxPoint x="165.5" y="11460" as="sourcePoint" />
            <mxPoint x="475.5" y="11460" as="targetPoint" />
          </mxGeometry>
        </mxCell>
        <mxCell id="x0n5BMUEkLOeOddu-3SM-245" value="" style="edgeStyle=orthogonalEdgeStyle;rounded=0;orthogonalLoop=1;jettySize=auto;html=1;" parent="1" edge="1">
          <mxGeometry relative="1" as="geometry">
            <mxPoint x="333.5" y="11460" as="sourcePoint" />
            <mxPoint x="333.5" y="11487" as="targetPoint" />
          </mxGeometry>
        </mxCell>
        <mxCell id="x0n5BMUEkLOeOddu-3SM-250" value="&lt;span style=&quot;font-size: 12px;&quot;&gt;pos = pos + 1;&lt;/span&gt;" style="rounded=1;whiteSpace=wrap;html=1;absoluteArcSize=1;arcSize=14;strokeWidth=2;" parent="1" vertex="1">
          <mxGeometry x="260" y="11490" width="155" height="100" as="geometry" />
        </mxCell>
        <mxCell id="x0n5BMUEkLOeOddu-3SM-256" value="" style="edgeStyle=orthogonalEdgeStyle;rounded=0;orthogonalLoop=1;jettySize=auto;html=1;" parent="1" edge="1">
          <mxGeometry relative="1" as="geometry">
            <mxPoint x="337" y="11820" as="sourcePoint" />
            <mxPoint x="337.5" y="11840" as="targetPoint" />
          </mxGeometry>
        </mxCell>
        <mxCell id="x0n5BMUEkLOeOddu-3SM-257" value="&lt;span style=&quot;font-size: 12px;&quot;&gt;!findNumbers&lt;/span&gt;" style="rhombus;whiteSpace=wrap;html=1;" parent="1" vertex="1">
          <mxGeometry x="258.5" y="11840" width="156" height="100" as="geometry" />
        </mxCell>
        <mxCell id="x0n5BMUEkLOeOddu-3SM-258" value="" style="endArrow=none;html=1;rounded=0;" parent="1" edge="1">
          <mxGeometry width="50" height="50" relative="1" as="geometry">
            <mxPoint x="191.5" y="11890" as="sourcePoint" />
            <mxPoint x="259.5006781186547" y="11889.5" as="targetPoint" />
          </mxGeometry>
        </mxCell>
        <mxCell id="x0n5BMUEkLOeOddu-3SM-259" value="" style="endArrow=none;html=1;rounded=0;" parent="1" edge="1">
          <mxGeometry width="50" height="50" relative="1" as="geometry">
            <mxPoint x="411.5" y="11890" as="sourcePoint" />
            <mxPoint x="479.5006781186547" y="11889.5" as="targetPoint" />
          </mxGeometry>
        </mxCell>
        <mxCell id="x0n5BMUEkLOeOddu-3SM-260" value="" style="edgeStyle=orthogonalEdgeStyle;rounded=0;orthogonalLoop=1;jettySize=auto;html=1;" parent="1" edge="1">
          <mxGeometry relative="1" as="geometry">
            <mxPoint x="194" y="11890" as="sourcePoint" />
            <mxPoint x="194.5" y="11910" as="targetPoint" />
          </mxGeometry>
        </mxCell>
        <mxCell id="x0n5BMUEkLOeOddu-3SM-261" value="" style="edgeStyle=orthogonalEdgeStyle;rounded=0;orthogonalLoop=1;jettySize=auto;html=1;" parent="1" edge="1">
          <mxGeometry relative="1" as="geometry">
            <mxPoint x="479" y="11890" as="sourcePoint" />
            <mxPoint x="479.5" y="11910" as="targetPoint" />
          </mxGeometry>
        </mxCell>
        <mxCell id="x0n5BMUEkLOeOddu-3SM-262" value="&lt;span style=&quot;font-size: 10px;&quot;&gt;Mobile numbers not found!&lt;/span&gt;" style="shape=parallelogram;perimeter=parallelogramPerimeter;whiteSpace=wrap;html=1;fixedSize=1;" parent="1" vertex="1">
          <mxGeometry x="115.5" y="11910" width="150" height="100" as="geometry" />
        </mxCell>
        <mxCell id="x0n5BMUEkLOeOddu-3SM-263" value="&lt;span style=&quot;font-size: 12px;&quot;&gt;Your mobile numbers:&lt;/span&gt;" style="shape=parallelogram;perimeter=parallelogramPerimeter;whiteSpace=wrap;html=1;fixedSize=1;" parent="1" vertex="1">
          <mxGeometry x="392.5" y="11910" width="150" height="100" as="geometry" />
        </mxCell>
        <mxCell id="x0n5BMUEkLOeOddu-3SM-265" value="" style="endArrow=none;html=1;rounded=0;" parent="1" edge="1">
          <mxGeometry width="50" height="50" relative="1" as="geometry">
            <mxPoint x="192" y="12030" as="sourcePoint" />
            <mxPoint x="192" y="12010" as="targetPoint" />
          </mxGeometry>
        </mxCell>
        <mxCell id="x0n5BMUEkLOeOddu-3SM-266" value="" style="endArrow=none;html=1;rounded=0;" parent="1" edge="1">
          <mxGeometry width="50" height="50" relative="1" as="geometry">
            <mxPoint x="479.5" y="12030" as="sourcePoint" />
            <mxPoint x="479.5" y="12010" as="targetPoint" />
          </mxGeometry>
        </mxCell>
        <mxCell id="x0n5BMUEkLOeOddu-3SM-267" value="" style="endArrow=none;html=1;rounded=0;" parent="1" edge="1">
          <mxGeometry width="50" height="50" relative="1" as="geometry">
            <mxPoint x="190" y="12030" as="sourcePoint" />
            <mxPoint x="480" y="12030" as="targetPoint" />
          </mxGeometry>
        </mxCell>
        <mxCell id="x0n5BMUEkLOeOddu-3SM-268" value="" style="edgeStyle=orthogonalEdgeStyle;rounded=0;orthogonalLoop=1;jettySize=auto;html=1;" parent="1" edge="1">
          <mxGeometry relative="1" as="geometry">
            <mxPoint x="337" y="12030" as="sourcePoint" />
            <mxPoint x="337.5" y="12050" as="targetPoint" />
          </mxGeometry>
        </mxCell>
        <mxCell id="x0n5BMUEkLOeOddu-3SM-269" value="&lt;span style=&quot;font-size: 12px;&quot;&gt;ifstream in(&quot;Output.txt&quot;)&lt;/span&gt;" style="rounded=1;whiteSpace=wrap;html=1;absoluteArcSize=1;arcSize=14;strokeWidth=2;" parent="1" vertex="1">
          <mxGeometry x="265.5" y="12050" width="155" height="100" as="geometry" />
        </mxCell>
        <mxCell id="x0n5BMUEkLOeOddu-3SM-270" value="" style="edgeStyle=orthogonalEdgeStyle;rounded=0;orthogonalLoop=1;jettySize=auto;html=1;" parent="1" edge="1">
          <mxGeometry relative="1" as="geometry">
            <mxPoint x="337" y="12150" as="sourcePoint" />
            <mxPoint x="337.5" y="12170" as="targetPoint" />
          </mxGeometry>
        </mxCell>
        <mxCell id="x0n5BMUEkLOeOddu-3SM-271" value="&lt;span style=&quot;font-size: 12px;&quot;&gt;in.is_open()&lt;/span&gt;" style="rhombus;whiteSpace=wrap;html=1;" parent="1" vertex="1">
          <mxGeometry x="261" y="12170" width="156" height="100" as="geometry" />
        </mxCell>
        <mxCell id="x0n5BMUEkLOeOddu-3SM-272" value="" style="endArrow=none;html=1;rounded=0;" parent="1" edge="1">
          <mxGeometry width="50" height="50" relative="1" as="geometry">
            <mxPoint x="160" y="12220" as="sourcePoint" />
            <mxPoint x="261" y="12219.5" as="targetPoint" />
          </mxGeometry>
        </mxCell>
        <mxCell id="x0n5BMUEkLOeOddu-3SM-273" value="" style="endArrow=none;html=1;rounded=0;" parent="1" edge="1">
          <mxGeometry width="50" height="50" relative="1" as="geometry">
            <mxPoint x="417" y="12220" as="sourcePoint" />
            <mxPoint x="510" y="12220" as="targetPoint" />
          </mxGeometry>
        </mxCell>
        <mxCell id="x0n5BMUEkLOeOddu-3SM-274" value="&lt;span style=&quot;font-size: 12px;&quot;&gt;File is not open!&lt;/span&gt;" style="shape=parallelogram;perimeter=parallelogramPerimeter;whiteSpace=wrap;html=1;fixedSize=1;" parent="1" vertex="1">
          <mxGeometry x="430" y="12260" width="150" height="100" as="geometry" />
        </mxCell>
        <mxCell id="x0n5BMUEkLOeOddu-3SM-275" value="" style="edgeStyle=orthogonalEdgeStyle;rounded=0;orthogonalLoop=1;jettySize=auto;html=1;" parent="1" edge="1">
          <mxGeometry relative="1" as="geometry">
            <mxPoint x="507.5" y="12220" as="sourcePoint" />
            <mxPoint x="507.5" y="12260" as="targetPoint" />
          </mxGeometry>
        </mxCell>
        <mxCell id="x0n5BMUEkLOeOddu-3SM-276" value="" style="edgeStyle=orthogonalEdgeStyle;rounded=0;orthogonalLoop=1;jettySize=auto;html=1;" parent="1" edge="1">
          <mxGeometry relative="1" as="geometry">
            <mxPoint x="163.5" y="12220" as="sourcePoint" />
            <mxPoint x="163.5" y="12260" as="targetPoint" />
          </mxGeometry>
        </mxCell>
        <mxCell id="x0n5BMUEkLOeOddu-3SM-277" value="&lt;span style=&quot;font-size: 12px;&quot;&gt;getline(in, output)&lt;/span&gt;" style="rhombus;whiteSpace=wrap;html=1;" parent="1" vertex="1">
          <mxGeometry x="87.5" y="12260" width="156" height="100" as="geometry" />
        </mxCell>
        <mxCell id="x0n5BMUEkLOeOddu-3SM-278" value="" style="edgeStyle=orthogonalEdgeStyle;rounded=0;orthogonalLoop=1;jettySize=auto;html=1;" parent="1" edge="1">
          <mxGeometry relative="1" as="geometry">
            <mxPoint x="165" y="12360" as="sourcePoint" />
            <mxPoint x="165.5" y="12380" as="targetPoint" />
          </mxGeometry>
        </mxCell>
        <mxCell id="x0n5BMUEkLOeOddu-3SM-279" value="&lt;span style=&quot;font-size: 12px;&quot;&gt;&amp;nbsp;output&lt;/span&gt;" style="shape=parallelogram;perimeter=parallelogramPerimeter;whiteSpace=wrap;html=1;fixedSize=1;" parent="1" vertex="1">
          <mxGeometry x="87.5" y="12380" width="150" height="100" as="geometry" />
        </mxCell>
        <mxCell id="x0n5BMUEkLOeOddu-3SM-280" value="" style="endArrow=none;html=1;rounded=0;" parent="1" edge="1">
          <mxGeometry width="50" height="50" relative="1" as="geometry">
            <mxPoint x="243" y="12309.5" as="sourcePoint" />
            <mxPoint x="303" y="12309.5" as="targetPoint" />
          </mxGeometry>
        </mxCell>
        <mxCell id="x0n5BMUEkLOeOddu-3SM-281" value="" style="endArrow=none;html=1;rounded=0;" parent="1" edge="1">
          <mxGeometry width="50" height="50" relative="1" as="geometry">
            <mxPoint x="304" y="12500" as="sourcePoint" />
            <mxPoint x="304" y="12310" as="targetPoint" />
          </mxGeometry>
        </mxCell>
        <mxCell id="x0n5BMUEkLOeOddu-3SM-282" value="" style="endArrow=none;html=1;rounded=0;" parent="1" edge="1">
          <mxGeometry width="50" height="50" relative="1" as="geometry">
            <mxPoint x="162.5" y="12500" as="sourcePoint" />
            <mxPoint x="162" y="12480" as="targetPoint" />
          </mxGeometry>
        </mxCell>
        <mxCell id="x0n5BMUEkLOeOddu-3SM-283" value="" style="endArrow=none;html=1;rounded=0;" parent="1" edge="1">
          <mxGeometry width="50" height="50" relative="1" as="geometry">
            <mxPoint x="67.5" y="12500" as="sourcePoint" />
            <mxPoint x="160" y="12500" as="targetPoint" />
          </mxGeometry>
        </mxCell>
        <mxCell id="x0n5BMUEkLOeOddu-3SM-284" value="" style="endArrow=none;html=1;rounded=0;" parent="1" edge="1">
          <mxGeometry width="50" height="50" relative="1" as="geometry">
            <mxPoint x="72" y="12500" as="sourcePoint" />
            <mxPoint x="72.5" y="12310" as="targetPoint" />
          </mxGeometry>
        </mxCell>
        <mxCell id="x0n5BMUEkLOeOddu-3SM-285" value="" style="endArrow=classic;html=1;rounded=0;" parent="1" edge="1">
          <mxGeometry width="50" height="50" relative="1" as="geometry">
            <mxPoint x="72" y="12309.5" as="sourcePoint" />
            <mxPoint x="87.5" y="12310" as="targetPoint" />
          </mxGeometry>
        </mxCell>
        <mxCell id="x0n5BMUEkLOeOddu-3SM-286" value="25" style="text;html=1;align=center;verticalAlign=middle;whiteSpace=wrap;rounded=0;fillColor=#f9f7ed;strokeColor=#36393d;" parent="1" vertex="1">
          <mxGeometry x="117.5" y="12270" width="35" height="20" as="geometry" />
        </mxCell>
        <mxCell id="x0n5BMUEkLOeOddu-3SM-287" value="27" style="text;html=1;align=center;verticalAlign=middle;whiteSpace=wrap;rounded=0;fillColor=#f9f7ed;strokeColor=#36393d;" parent="1" vertex="1">
          <mxGeometry x="117.5" y="12370" width="35" height="20" as="geometry" />
        </mxCell>
        <mxCell id="x0n5BMUEkLOeOddu-3SM-288" value="" style="edgeStyle=orthogonalEdgeStyle;rounded=0;orthogonalLoop=1;jettySize=auto;html=1;" parent="1" edge="1">
          <mxGeometry relative="1" as="geometry">
            <mxPoint x="304" y="12500" as="sourcePoint" />
            <mxPoint x="304.5" y="12520" as="targetPoint" />
          </mxGeometry>
        </mxCell>
        <mxCell id="x0n5BMUEkLOeOddu-3SM-289" value="" style="endArrow=none;html=1;rounded=0;" parent="1" edge="1">
          <mxGeometry width="50" height="50" relative="1" as="geometry">
            <mxPoint x="163.5" y="12500" as="sourcePoint" />
            <mxPoint x="163.5" y="12520" as="targetPoint" />
          </mxGeometry>
        </mxCell>
        <mxCell id="x0n5BMUEkLOeOddu-3SM-290" value="" style="endArrow=none;html=1;rounded=0;" parent="1" edge="1">
          <mxGeometry width="50" height="50" relative="1" as="geometry">
            <mxPoint x="164.5" y="12520" as="sourcePoint" />
            <mxPoint x="510" y="12520" as="targetPoint" />
          </mxGeometry>
        </mxCell>
        <mxCell id="x0n5BMUEkLOeOddu-3SM-291" value="" style="endArrow=none;html=1;rounded=0;" parent="1" edge="1">
          <mxGeometry width="50" height="50" relative="1" as="geometry">
            <mxPoint x="505" y="12520" as="sourcePoint" />
            <mxPoint x="504.5" y="12360" as="targetPoint" />
          </mxGeometry>
        </mxCell>
        <mxCell id="x0n5BMUEkLOeOddu-3SM-292" value="" style="edgeStyle=orthogonalEdgeStyle;rounded=0;orthogonalLoop=1;jettySize=auto;html=1;" parent="1" edge="1">
          <mxGeometry relative="1" as="geometry">
            <mxPoint x="337" y="12520" as="sourcePoint" />
            <mxPoint x="337.5" y="12540" as="targetPoint" />
          </mxGeometry>
        </mxCell>
        <mxCell id="x0n5BMUEkLOeOddu-3SM-293" value="&lt;div&gt;&lt;br&gt;&lt;/div&gt;&lt;div&gt;конец&lt;/div&gt;&lt;div&gt;mobilePhone&lt;/div&gt;" style="strokeWidth=2;html=1;shape=mxgraph.flowchart.terminator;whiteSpace=wrap;" parent="1" vertex="1">
          <mxGeometry x="265" y="12540" width="154" height="50" as="geometry" />
        </mxCell>
        <mxCell id="_MSY-a96elEp7Dop_7e4-1" value="из бл2 стр7 в бл6 стр8" style="text;html=1;strokeColor=none;fillColor=none;align=center;verticalAlign=middle;whiteSpace=wrap;rounded=0;" parent="1" vertex="1">
          <mxGeometry x="404.5" y="1960" width="60" height="45" as="geometry" />
        </mxCell>
        <mxCell id="_MSY-a96elEp7Dop_7e4-2" value="из бл6 стр8 в бл1 стр7" style="text;html=1;strokeColor=none;fillColor=none;align=center;verticalAlign=middle;whiteSpace=wrap;rounded=0;" parent="1" vertex="1">
          <mxGeometry x="52.5" y="1300" width="60" height="45" as="geometry" />
        </mxCell>
        <mxCell id="_MSY-a96elEp7Dop_7e4-3" value="из бл1 стр7 в бл10 стр8" style="text;html=1;strokeColor=none;fillColor=none;align=center;verticalAlign=middle;whiteSpace=wrap;rounded=0;" parent="1" vertex="1">
          <mxGeometry x="621" y="2242.5" width="60" height="45" as="geometry" />
        </mxCell>
        <mxCell id="_MSY-a96elEp7Dop_7e4-4" value="" style="endArrow=classic;html=1;rounded=0;" parent="1" edge="1">
          <mxGeometry width="50" height="50" relative="1" as="geometry">
            <mxPoint x="82" y="2510" as="sourcePoint" />
            <mxPoint x="80" y="2040" as="targetPoint" />
          </mxGeometry>
        </mxCell>
        <mxCell id="_MSY-a96elEp7Dop_7e4-5" value="из бл10 стр8 в бл13 стр9" style="text;html=1;strokeColor=none;fillColor=none;align=center;verticalAlign=middle;whiteSpace=wrap;rounded=0;" parent="1" vertex="1">
          <mxGeometry x="406.5" y="2965" width="60" height="45" as="geometry" />
        </mxCell>
        <mxCell id="_MSY-a96elEp7Dop_7e4-6" value="из бл15 стр9 в бл19 стр10" style="text;html=1;strokeColor=none;fillColor=none;align=center;verticalAlign=middle;whiteSpace=wrap;rounded=0;" parent="1" vertex="1">
          <mxGeometry x="422.5" y="3960" width="60" height="45" as="geometry" />
        </mxCell>
        <mxCell id="_MSY-a96elEp7Dop_7e4-7" value="из бл4 стр11 в бл5 стр12" style="text;html=1;strokeColor=none;fillColor=none;align=center;verticalAlign=middle;whiteSpace=wrap;rounded=0;" parent="1" vertex="1">
          <mxGeometry x="461" y="6097.5" width="60" height="45" as="geometry" />
        </mxCell>
        <mxCell id="_MSY-a96elEp7Dop_7e4-8" value="из бл3 стр11 в бл10 стр13" style="text;html=1;strokeColor=none;fillColor=none;align=center;verticalAlign=middle;whiteSpace=wrap;rounded=0;" parent="1" vertex="1">
          <mxGeometry x="700" y="6192.5" width="60" height="45" as="geometry" />
        </mxCell>
        <mxCell id="_MSY-a96elEp7Dop_7e4-9" value="из бл3 стр11 в бл10 стр13" style="text;html=1;strokeColor=none;fillColor=none;align=center;verticalAlign=middle;whiteSpace=wrap;rounded=0;" parent="1" vertex="1">
          <mxGeometry x="455.5" y="6792.5" width="60" height="45" as="geometry" />
        </mxCell>
        <mxCell id="_MSY-a96elEp7Dop_7e4-10" value="из бл5 стр12 в бл3 стр11" style="text;html=1;strokeColor=none;fillColor=none;align=center;verticalAlign=middle;whiteSpace=wrap;rounded=0;" parent="1" vertex="1">
          <mxGeometry x="4" y="6330" width="60" height="45" as="geometry" />
        </mxCell>
        <mxCell id="_MSY-a96elEp7Dop_7e4-11" value="из бл3 стр11 в бл10 стр13" style="text;html=1;strokeColor=none;fillColor=none;align=center;verticalAlign=middle;whiteSpace=wrap;rounded=0;" parent="1" vertex="1">
          <mxGeometry x="455" y="7092.5" width="60" height="45" as="geometry" />
        </mxCell>
        <mxCell id="_MSY-a96elEp7Dop_7e4-12" value="1" style="text;html=1;align=center;verticalAlign=middle;whiteSpace=wrap;rounded=0;fillColor=#f9f7ed;strokeColor=#36393d;" parent="1" vertex="1">
          <mxGeometry x="294" y="8240" width="35" height="20" as="geometry" />
        </mxCell>
        <mxCell id="_MSY-a96elEp7Dop_7e4-13" value="8" style="text;html=1;align=center;verticalAlign=middle;whiteSpace=wrap;rounded=0;fillColor=#f9f7ed;strokeColor=#36393d;" parent="1" vertex="1">
          <mxGeometry x="305" y="9510" width="35" height="20" as="geometry" />
        </mxCell>
        <mxCell id="_MSY-a96elEp7Dop_7e4-14" value="7" style="text;html=1;align=center;verticalAlign=middle;whiteSpace=wrap;rounded=0;fillColor=#f9f7ed;strokeColor=#36393d;" parent="1" vertex="1">
          <mxGeometry x="154.5" y="8910" width="35" height="20" as="geometry" />
        </mxCell>
        <mxCell id="_MSY-a96elEp7Dop_7e4-15" value="6" style="text;html=1;align=center;verticalAlign=middle;whiteSpace=wrap;rounded=0;fillColor=#f9f7ed;strokeColor=#36393d;" parent="1" vertex="1">
          <mxGeometry x="162.5" y="8790" width="35" height="20" as="geometry" />
        </mxCell>
        <mxCell id="_MSY-a96elEp7Dop_7e4-16" value="5" style="text;html=1;align=center;verticalAlign=middle;whiteSpace=wrap;rounded=0;fillColor=#f9f7ed;strokeColor=#36393d;" parent="1" vertex="1">
          <mxGeometry x="160" y="8670" width="35" height="20" as="geometry" />
        </mxCell>
        <mxCell id="_MSY-a96elEp7Dop_7e4-17" value="4" style="text;html=1;align=center;verticalAlign=middle;whiteSpace=wrap;rounded=0;fillColor=#f9f7ed;strokeColor=#36393d;" parent="1" vertex="1">
          <mxGeometry x="312.5" y="8620" width="35" height="20" as="geometry" />
        </mxCell>
        <mxCell id="_MSY-a96elEp7Dop_7e4-18" value="3" style="text;html=1;align=center;verticalAlign=middle;whiteSpace=wrap;rounded=0;fillColor=#f9f7ed;strokeColor=#36393d;" parent="1" vertex="1">
          <mxGeometry x="312.5" y="8500" width="35" height="20" as="geometry" />
        </mxCell>
        <mxCell id="_MSY-a96elEp7Dop_7e4-19" value="2" style="text;html=1;align=center;verticalAlign=middle;whiteSpace=wrap;rounded=0;fillColor=#f9f7ed;strokeColor=#36393d;" parent="1" vertex="1">
          <mxGeometry x="300.5" y="8360" width="35" height="20" as="geometry" />
        </mxCell>
        <mxCell id="_MSY-a96elEp7Dop_7e4-21" value="11" style="text;html=1;align=center;verticalAlign=middle;whiteSpace=wrap;rounded=0;fillColor=#f9f7ed;strokeColor=#36393d;" parent="1" vertex="1">
          <mxGeometry x="129.5" y="9800" width="35" height="20" as="geometry" />
        </mxCell>
        <mxCell id="_MSY-a96elEp7Dop_7e4-22" value="10" style="text;html=1;align=center;verticalAlign=middle;whiteSpace=wrap;rounded=0;fillColor=#f9f7ed;strokeColor=#36393d;" parent="1" vertex="1">
          <mxGeometry x="142" y="9680" width="35" height="20" as="geometry" />
        </mxCell>
        <mxCell id="_MSY-a96elEp7Dop_7e4-23" value="9" style="text;html=1;align=center;verticalAlign=middle;whiteSpace=wrap;rounded=0;fillColor=#f9f7ed;strokeColor=#36393d;" parent="1" vertex="1">
          <mxGeometry x="142" y="9560" width="35" height="20" as="geometry" />
        </mxCell>
        <mxCell id="_MSY-a96elEp7Dop_7e4-26" value="12" style="text;html=1;align=center;verticalAlign=middle;whiteSpace=wrap;rounded=0;fillColor=#f9f7ed;strokeColor=#36393d;" parent="1" vertex="1">
          <mxGeometry x="290" y="10300" width="35" height="20" as="geometry" />
        </mxCell>
        <mxCell id="_MSY-a96elEp7Dop_7e4-28" value="15" style="text;html=1;align=center;verticalAlign=middle;whiteSpace=wrap;rounded=0;fillColor=#f9f7ed;strokeColor=#36393d;" parent="1" vertex="1">
          <mxGeometry x="119.5" y="10590" width="35" height="20" as="geometry" />
        </mxCell>
        <mxCell id="_MSY-a96elEp7Dop_7e4-29" value="14" style="text;html=1;align=center;verticalAlign=middle;whiteSpace=wrap;rounded=0;fillColor=#f9f7ed;strokeColor=#36393d;" parent="1" vertex="1">
          <mxGeometry x="140" y="10470" width="35" height="20" as="geometry" />
        </mxCell>
        <mxCell id="_MSY-a96elEp7Dop_7e4-30" value="13" style="text;html=1;align=center;verticalAlign=middle;whiteSpace=wrap;rounded=0;fillColor=#f9f7ed;strokeColor=#36393d;" parent="1" vertex="1">
          <mxGeometry x="133" y="10350" width="35" height="20" as="geometry" />
        </mxCell>
        <mxCell id="_MSY-a96elEp7Dop_7e4-31" value="18" style="text;html=1;align=center;verticalAlign=middle;whiteSpace=wrap;rounded=0;fillColor=#f9f7ed;strokeColor=#36393d;" parent="1" vertex="1">
          <mxGeometry x="129.5" y="11210" width="35" height="20" as="geometry" />
        </mxCell>
        <mxCell id="_MSY-a96elEp7Dop_7e4-32" value="17" style="text;html=1;align=center;verticalAlign=middle;whiteSpace=wrap;rounded=0;fillColor=#f9f7ed;strokeColor=#36393d;" parent="1" vertex="1">
          <mxGeometry x="129.5" y="11096" width="35" height="20" as="geometry" />
        </mxCell>
        <mxCell id="_MSY-a96elEp7Dop_7e4-33" value="16" style="text;html=1;align=center;verticalAlign=middle;whiteSpace=wrap;rounded=0;fillColor=#f9f7ed;strokeColor=#36393d;" parent="1" vertex="1">
          <mxGeometry x="288.5" y="11040" width="35" height="20" as="geometry" />
        </mxCell>
        <mxCell id="_MSY-a96elEp7Dop_7e4-34" value="21" style="text;html=1;align=center;verticalAlign=middle;whiteSpace=wrap;rounded=0;fillColor=#f9f7ed;strokeColor=#36393d;" parent="1" vertex="1">
          <mxGeometry x="288.5" y="11850" width="35" height="20" as="geometry" />
        </mxCell>
        <mxCell id="_MSY-a96elEp7Dop_7e4-35" value="20" style="text;html=1;align=center;verticalAlign=middle;whiteSpace=wrap;rounded=0;fillColor=#f9f7ed;strokeColor=#36393d;" parent="1" vertex="1">
          <mxGeometry x="277" y="11480" width="35" height="20" as="geometry" />
        </mxCell>
        <mxCell id="_MSY-a96elEp7Dop_7e4-36" value="19" style="text;html=1;align=center;verticalAlign=middle;whiteSpace=wrap;rounded=0;fillColor=#f9f7ed;strokeColor=#36393d;" parent="1" vertex="1">
          <mxGeometry x="119.5" y="11330" width="35" height="20" as="geometry" />
        </mxCell>
        <mxCell id="_MSY-a96elEp7Dop_7e4-37" value="23" style="text;html=1;align=center;verticalAlign=middle;whiteSpace=wrap;rounded=0;fillColor=#f9f7ed;strokeColor=#36393d;" parent="1" vertex="1">
          <mxGeometry x="285" y="12050" width="35" height="20" as="geometry" />
        </mxCell>
        <mxCell id="_MSY-a96elEp7Dop_7e4-38" value="21" style="text;html=1;align=center;verticalAlign=middle;whiteSpace=wrap;rounded=0;fillColor=#f9f7ed;strokeColor=#36393d;" parent="1" vertex="1">
          <mxGeometry x="147.5" y="11900" width="35" height="20" as="geometry" />
        </mxCell>
        <mxCell id="_MSY-a96elEp7Dop_7e4-39" value="22" style="text;html=1;align=center;verticalAlign=middle;whiteSpace=wrap;rounded=0;fillColor=#f9f7ed;strokeColor=#36393d;" parent="1" vertex="1">
          <mxGeometry x="426.5" y="11900" width="35" height="20" as="geometry" />
        </mxCell>
        <mxCell id="_MSY-a96elEp7Dop_7e4-41" value="26" style="text;html=1;align=center;verticalAlign=middle;whiteSpace=wrap;rounded=0;fillColor=#f9f7ed;strokeColor=#36393d;" parent="1" vertex="1">
          <mxGeometry x="457" y="12255" width="35" height="20" as="geometry" />
        </mxCell>
        <mxCell id="_MSY-a96elEp7Dop_7e4-42" value="24" style="text;html=1;align=center;verticalAlign=middle;whiteSpace=wrap;rounded=0;fillColor=#f9f7ed;strokeColor=#36393d;" parent="1" vertex="1">
          <mxGeometry x="294" y="12180" width="35" height="20" as="geometry" />
        </mxCell>
        <mxCell id="1Q7UK-DGJvgGkN5wu0H5-2" value="2" style="ellipse;whiteSpace=wrap;html=1;aspect=fixed;" vertex="1" parent="1">
          <mxGeometry x="494" y="11720" width="50" height="50" as="geometry" />
        </mxCell>
        <mxCell id="1Q7UK-DGJvgGkN5wu0H5-3" value="" style="endArrow=none;dashed=1;html=1;rounded=0;" edge="1" parent="1">
          <mxGeometry width="50" height="50" relative="1" as="geometry">
            <mxPoint x="546" y="11744.5" as="sourcePoint" />
            <mxPoint x="566" y="11744.5" as="targetPoint" />
          </mxGeometry>
        </mxCell>
        <mxCell id="1Q7UK-DGJvgGkN5wu0H5-4" value="из бл3 стр14 в бл21 стр18" style="text;html=1;strokeColor=none;fillColor=none;align=center;verticalAlign=middle;whiteSpace=wrap;rounded=0;" vertex="1" parent="1">
          <mxGeometry x="591" y="11720" width="60" height="45" as="geometry" />
        </mxCell>
        <mxCell id="1Q7UK-DGJvgGkN5wu0H5-5" value="" style="strokeWidth=2;html=1;shape=mxgraph.flowchart.annotation_2;align=left;labelPosition=right;pointerEvents=1;rotation=0;" vertex="1" parent="1">
          <mxGeometry x="570.5" y="11720" width="30" height="50" as="geometry" />
        </mxCell>
        <mxCell id="1Q7UK-DGJvgGkN5wu0H5-6" value="" style="endArrow=none;html=1;rounded=0;" edge="1" parent="1">
          <mxGeometry width="50" height="50" relative="1" as="geometry">
            <mxPoint x="518.5" y="11770" as="sourcePoint" />
            <mxPoint x="518.5" y="11820" as="targetPoint" />
          </mxGeometry>
        </mxCell>
        <mxCell id="1Q7UK-DGJvgGkN5wu0H5-9" value="" style="endArrow=none;html=1;rounded=0;" edge="1" parent="1">
          <mxGeometry width="50" height="50" relative="1" as="geometry">
            <mxPoint x="340" y="11820" as="sourcePoint" />
            <mxPoint x="517" y="11820" as="targetPoint" />
          </mxGeometry>
        </mxCell>
        <mxCell id="1Q7UK-DGJvgGkN5wu0H5-10" value="из бл4 стр14 в бл8 стр15" style="text;html=1;strokeColor=none;fillColor=none;align=center;verticalAlign=middle;whiteSpace=wrap;rounded=0;" vertex="1" parent="1">
          <mxGeometry x="414" y="9435" width="60" height="45" as="geometry" />
        </mxCell>
        <mxCell id="1Q7UK-DGJvgGkN5wu0H5-11" value="из бл8 стр15 в бл12 стр16" style="text;html=1;strokeColor=none;fillColor=none;align=center;verticalAlign=middle;whiteSpace=wrap;rounded=0;" vertex="1" parent="1">
          <mxGeometry x="405" y="10225" width="60" height="45" as="geometry" />
        </mxCell>
        <mxCell id="1Q7UK-DGJvgGkN5wu0H5-12" value="из бл12 стр16 в бл16 стр17" style="text;html=1;strokeColor=none;fillColor=none;align=center;verticalAlign=middle;whiteSpace=wrap;rounded=0;" vertex="1" parent="1">
          <mxGeometry x="407.5" y="10962.5" width="60" height="45" as="geometry" />
        </mxCell>
        <mxCell id="1Q7UK-DGJvgGkN5wu0H5-13" value="" style="endArrow=none;html=1;rounded=0;" edge="1" parent="1">
          <mxGeometry width="50" height="50" relative="1" as="geometry">
            <mxPoint x="337" y="11620" as="sourcePoint" />
            <mxPoint x="337" y="11590" as="targetPoint" />
          </mxGeometry>
        </mxCell>
        <mxCell id="1Q7UK-DGJvgGkN5wu0H5-14" value="" style="endArrow=none;html=1;rounded=0;" edge="1" parent="1">
          <mxGeometry width="50" height="50" relative="1" as="geometry">
            <mxPoint x="40" y="11620" as="sourcePoint" />
            <mxPoint x="336.5" y="11620" as="targetPoint" />
          </mxGeometry>
        </mxCell>
        <mxCell id="1Q7UK-DGJvgGkN5wu0H5-18" value="" style="endArrow=classic;html=1;rounded=0;" edge="1" parent="1">
          <mxGeometry width="50" height="50" relative="1" as="geometry">
            <mxPoint x="41.5" y="11620" as="sourcePoint" />
            <mxPoint x="40" y="11440" as="targetPoint" />
          </mxGeometry>
        </mxCell>
        <mxCell id="1Q7UK-DGJvgGkN5wu0H5-19" value="3" style="ellipse;whiteSpace=wrap;html=1;aspect=fixed;" vertex="1" parent="1">
          <mxGeometry x="14" y="11390.5" width="50" height="50" as="geometry" />
        </mxCell>
        <mxCell id="1Q7UK-DGJvgGkN5wu0H5-20" value="" style="endArrow=none;dashed=1;html=1;rounded=0;" edge="1" parent="1">
          <mxGeometry width="50" height="50" relative="1" as="geometry">
            <mxPoint x="-6" y="11415" as="sourcePoint" />
            <mxPoint x="14" y="11415" as="targetPoint" />
          </mxGeometry>
        </mxCell>
        <mxCell id="1Q7UK-DGJvgGkN5wu0H5-21" value="" style="strokeWidth=2;html=1;shape=mxgraph.flowchart.annotation_2;align=left;labelPosition=right;pointerEvents=1;rotation=-180;" vertex="1" parent="1">
          <mxGeometry x="-38.5" y="11390.5" width="30" height="50" as="geometry" />
        </mxCell>
        <mxCell id="1Q7UK-DGJvgGkN5wu0H5-22" value="из бл20 стр17 в бл3 стр14" style="text;html=1;strokeColor=none;fillColor=none;align=center;verticalAlign=middle;whiteSpace=wrap;rounded=0;" vertex="1" parent="1">
          <mxGeometry x="-91" y="11390.5" width="60" height="45" as="geometry" />
        </mxCell>
        <mxCell id="1Q7UK-DGJvgGkN5wu0H5-23" value="из бл20 стр17 в бл3 стр14" style="text;html=1;strokeColor=none;fillColor=none;align=center;verticalAlign=middle;whiteSpace=wrap;rounded=0;" vertex="1" parent="1">
          <mxGeometry x="-40" y="8800" width="60" height="45" as="geometry" />
        </mxCell>
        <mxCell id="1Q7UK-DGJvgGkN5wu0H5-24" value="Text" style="text;html=1;align=center;verticalAlign=middle;whiteSpace=wrap;rounded=0;" vertex="1" parent="1">
          <mxGeometry x="360" y="-530" width="60" height="30" as="geometry" />
        </mxCell>
        <mxCell id="1Q7UK-DGJvgGkN5wu0H5-25" value="+" style="text;html=1;align=center;verticalAlign=middle;whiteSpace=wrap;rounded=0;" vertex="1" parent="1">
          <mxGeometry x="185" y="-640" width="60" height="30" as="geometry" />
        </mxCell>
        <mxCell id="1Q7UK-DGJvgGkN5wu0H5-26" value="-" style="text;html=1;align=center;verticalAlign=middle;whiteSpace=wrap;rounded=0;" vertex="1" parent="1">
          <mxGeometry x="396" y="-640" width="60" height="30" as="geometry" />
        </mxCell>
        <mxCell id="1Q7UK-DGJvgGkN5wu0H5-27" value="+" style="text;html=1;align=center;verticalAlign=middle;whiteSpace=wrap;rounded=0;" vertex="1" parent="1">
          <mxGeometry x="191" y="1105" width="60" height="30" as="geometry" />
        </mxCell>
        <mxCell id="1Q7UK-DGJvgGkN5wu0H5-28" value="-" style="text;html=1;align=center;verticalAlign=middle;whiteSpace=wrap;rounded=0;" vertex="1" parent="1">
          <mxGeometry x="398" y="1105" width="60" height="30" as="geometry" />
        </mxCell>
        <mxCell id="1Q7UK-DGJvgGkN5wu0H5-29" value="+" style="text;html=1;align=center;verticalAlign=middle;whiteSpace=wrap;rounded=0;" vertex="1" parent="1">
          <mxGeometry x="194.5" y="2035" width="60" height="30" as="geometry" />
        </mxCell>
        <mxCell id="1Q7UK-DGJvgGkN5wu0H5-30" value="-" style="text;html=1;align=center;verticalAlign=middle;whiteSpace=wrap;rounded=0;" vertex="1" parent="1">
          <mxGeometry x="405" y="2035" width="60" height="30" as="geometry" />
        </mxCell>
        <mxCell id="1Q7UK-DGJvgGkN5wu0H5-31" value="+" style="text;html=1;align=center;verticalAlign=middle;whiteSpace=wrap;rounded=0;" vertex="1" parent="1">
          <mxGeometry x="194.5" y="2545" width="60" height="30" as="geometry" />
        </mxCell>
        <mxCell id="1Q7UK-DGJvgGkN5wu0H5-32" value="-" style="text;html=1;align=center;verticalAlign=middle;whiteSpace=wrap;rounded=0;" vertex="1" parent="1">
          <mxGeometry x="389" y="2545" width="60" height="30" as="geometry" />
        </mxCell>
        <mxCell id="1Q7UK-DGJvgGkN5wu0H5-33" value="+" style="text;html=1;align=center;verticalAlign=middle;whiteSpace=wrap;rounded=0;" vertex="1" parent="1">
          <mxGeometry x="217" y="3275" width="60" height="30" as="geometry" />
        </mxCell>
        <mxCell id="1Q7UK-DGJvgGkN5wu0H5-34" value="-" style="text;html=1;align=center;verticalAlign=middle;whiteSpace=wrap;rounded=0;" vertex="1" parent="1">
          <mxGeometry x="424.5" y="3275" width="60" height="30" as="geometry" />
        </mxCell>
        <mxCell id="1Q7UK-DGJvgGkN5wu0H5-35" value="+" style="text;html=1;align=center;verticalAlign=middle;whiteSpace=wrap;rounded=0;" vertex="1" parent="1">
          <mxGeometry x="230" y="4150" width="60" height="30" as="geometry" />
        </mxCell>
        <mxCell id="1Q7UK-DGJvgGkN5wu0H5-36" value="-" style="text;html=1;align=center;verticalAlign=middle;whiteSpace=wrap;rounded=0;" vertex="1" parent="1">
          <mxGeometry x="426.5" y="4160" width="60" height="30" as="geometry" />
        </mxCell>
        <mxCell id="1Q7UK-DGJvgGkN5wu0H5-37" value="+" style="text;html=1;align=center;verticalAlign=middle;whiteSpace=wrap;rounded=0;" vertex="1" parent="1">
          <mxGeometry x="271" y="6160" width="60" height="30" as="geometry" />
        </mxCell>
        <mxCell id="1Q7UK-DGJvgGkN5wu0H5-38" value="-" style="text;html=1;align=center;verticalAlign=middle;whiteSpace=wrap;rounded=0;" vertex="1" parent="1">
          <mxGeometry x="464.5" y="6160" width="60" height="30" as="geometry" />
        </mxCell>
        <mxCell id="1Q7UK-DGJvgGkN5wu0H5-39" value="+" style="text;html=1;align=center;verticalAlign=middle;whiteSpace=wrap;rounded=0;" vertex="1" parent="1">
          <mxGeometry x="249" y="7170" width="60" height="30" as="geometry" />
        </mxCell>
        <mxCell id="1Q7UK-DGJvgGkN5wu0H5-40" value="-" style="text;html=1;align=center;verticalAlign=middle;whiteSpace=wrap;rounded=0;" vertex="1" parent="1">
          <mxGeometry x="461" y="7165" width="60" height="30" as="geometry" />
        </mxCell>
        <mxCell id="1Q7UK-DGJvgGkN5wu0H5-41" value="+" style="text;html=1;align=center;verticalAlign=middle;whiteSpace=wrap;rounded=0;" vertex="1" parent="1">
          <mxGeometry x="228.5" y="8615" width="60" height="30" as="geometry" />
        </mxCell>
        <mxCell id="1Q7UK-DGJvgGkN5wu0H5-42" value="-" style="text;html=1;align=center;verticalAlign=middle;whiteSpace=wrap;rounded=0;" vertex="1" parent="1">
          <mxGeometry x="440" y="8610" width="60" height="30" as="geometry" />
        </mxCell>
        <mxCell id="1Q7UK-DGJvgGkN5wu0H5-43" value="+" style="text;html=1;align=center;verticalAlign=middle;whiteSpace=wrap;rounded=0;" vertex="1" parent="1">
          <mxGeometry x="212" y="9510" width="60" height="30" as="geometry" />
        </mxCell>
        <mxCell id="1Q7UK-DGJvgGkN5wu0H5-44" value="-" style="text;html=1;align=center;verticalAlign=middle;whiteSpace=wrap;rounded=0;" vertex="1" parent="1">
          <mxGeometry x="398" y="9510" width="60" height="30" as="geometry" />
        </mxCell>
        <mxCell id="1Q7UK-DGJvgGkN5wu0H5-45" value="+" style="text;html=1;align=center;verticalAlign=middle;whiteSpace=wrap;rounded=0;" vertex="1" parent="1">
          <mxGeometry x="217.5" y="10295" width="60" height="30" as="geometry" />
        </mxCell>
        <mxCell id="1Q7UK-DGJvgGkN5wu0H5-46" value="-" style="text;html=1;align=center;verticalAlign=middle;whiteSpace=wrap;rounded=0;" vertex="1" parent="1">
          <mxGeometry x="406.5" y="10295" width="60" height="30" as="geometry" />
        </mxCell>
        <mxCell id="1Q7UK-DGJvgGkN5wu0H5-47" value="+" style="text;html=1;align=center;verticalAlign=middle;whiteSpace=wrap;rounded=0;" vertex="1" parent="1">
          <mxGeometry x="188.5" y="11040" width="60" height="30" as="geometry" />
        </mxCell>
        <mxCell id="1Q7UK-DGJvgGkN5wu0H5-48" value="-" style="text;html=1;align=center;verticalAlign=middle;whiteSpace=wrap;rounded=0;" vertex="1" parent="1">
          <mxGeometry x="404.5" y="11040" width="60" height="30" as="geometry" />
        </mxCell>
        <mxCell id="1Q7UK-DGJvgGkN5wu0H5-49" value="+" style="text;html=1;align=center;verticalAlign=middle;whiteSpace=wrap;rounded=0;" vertex="1" parent="1">
          <mxGeometry x="212" y="11845" width="60" height="30" as="geometry" />
        </mxCell>
        <mxCell id="1Q7UK-DGJvgGkN5wu0H5-50" value="-" style="text;html=1;align=center;verticalAlign=middle;whiteSpace=wrap;rounded=0;" vertex="1" parent="1">
          <mxGeometry x="415.5" y="11850" width="60" height="30" as="geometry" />
        </mxCell>
        <mxCell id="1Q7UK-DGJvgGkN5wu0H5-51" value="+" style="text;html=1;align=center;verticalAlign=middle;whiteSpace=wrap;rounded=0;" vertex="1" parent="1">
          <mxGeometry x="204.25" y="12175" width="60" height="30" as="geometry" />
        </mxCell>
        <mxCell id="1Q7UK-DGJvgGkN5wu0H5-52" value="-" style="text;html=1;align=center;verticalAlign=middle;whiteSpace=wrap;rounded=0;" vertex="1" parent="1">
          <mxGeometry x="418" y="12175" width="60" height="30" as="geometry" />
        </mxCell>
        <mxCell id="1Q7UK-DGJvgGkN5wu0H5-53" value="1" style="ellipse;whiteSpace=wrap;html=1;aspect=fixed;" vertex="1" parent="1">
          <mxGeometry x="-510" y="910" width="50" height="50" as="geometry" />
        </mxCell>
        <mxCell id="1Q7UK-DGJvgGkN5wu0H5-54" value="" style="edgeStyle=orthogonalEdgeStyle;rounded=0;orthogonalLoop=1;jettySize=auto;html=1;" edge="1" parent="1">
          <mxGeometry relative="1" as="geometry">
            <mxPoint x="-485.5" y="960" as="sourcePoint" />
            <mxPoint x="-485" y="980" as="targetPoint" />
          </mxGeometry>
        </mxCell>
      </root>
    </mxGraphModel>
  </diagram>
</mxfile>
